if (_typeface_js && _typeface_js.loadFace) _typeface_js.loadFace({"glyphs":{"S":{"x_min":44,"x_max":812.578125,"ha":874,"o":"m 423 480 b 696 300 609 465 696 498 b 419 95 696 95 637 95 b 161 325 202 95 159 95 l 46 325 b 419 -8 24 23 159 -8 b 812 295 676 -8 812 1 b 447 584 812 577 690 570 b 164 772 257 590 164 573 b 421 945 164 916 196 945 b 677 756 638 945 672 938 l 793 756 b 426 1050 805 1040 646 1050 b 49 747 174 1050 49 1025 b 423 480 49 472 221 497 "},"¦":{"x_min":126.578125,"x_max":228.671875,"ha":361,"o":"m 228 -243 l 228 243 l 126 243 l 126 -243 l 228 -243 m 228 937 l 126 937 l 126 451 l 228 451 l 228 937 "},"/":{"x_min":38,"x_max":951,"ha":1010,"o":"m 951 1041 l 824 1041 l 38 -156 l 161 -156 l 951 1041 "},"y":{"x_min":-5,"x_max":601,"ha":607,"o":"m 601 729 l 489 729 l 328 80 l 325 80 l 105 729 l -5 729 l 253 0 l 291 0 b 143 -236 267 -83 255 -236 b 105 -231 129 -236 117 -234 l 105 -316 b 154 -323 120 -319 136 -323 b 395 -51 325 -323 357 -188 l 601 729 "},"≈":{"x_min":79,"x_max":850.75,"ha":951,"o":"m 807 642 b 646 524 759 562 713 524 b 485 580 582 524 544 548 b 302 647 438 604 381 647 b 79 499 209 647 129 591 l 123 461 b 291 579 166 522 213 579 b 446 526 348 579 398 552 b 642 456 528 483 573 456 b 850 601 741 456 804 520 l 807 642 m 807 370 b 646 253 758 291 714 253 b 485 309 581 253 540 281 b 300 376 438 334 381 376 b 79 229 209 376 129 320 l 123 188 b 291 308 166 251 212 308 b 446 255 347 308 397 281 b 642 186 526 212 573 186 b 850 330 743 186 804 249 l 807 370 "},"Ž":{"x_min":34.796875,"x_max":831.046875,"ha":885,"o":"m 817 1041 l 53 1041 l 53 937 l 675 937 l 34 102 l 34 0 l 831 0 l 831 104 l 175 104 l 817 931 l 817 1041 m 429 1126 l 670 1275 l 641 1334 l 429 1229 l 228 1334 l 195 1275 l 429 1126 "},"Á":{"x_min":8,"x_max":924,"ha":951,"o":"m 723 220 l 804 0 l 924 0 l 542 1041 l 379 1041 l 8 0 l 129 0 l 208 220 l 723 220 m 691 318 l 239 318 l 463 944 l 691 318 m 541 1344 l 338 1187 l 375 1130 l 594 1269 l 541 1344 "},"g":{"x_min":69.34375,"x_max":691.375,"ha":796,"o":"m 376 80 b 180 363 168 80 180 188 b 376 648 180 555 178 648 b 583 363 570 648 583 566 b 376 80 583 201 583 80 m 691 729 l 583 729 l 583 637 l 581 636 b 351 737 538 723 450 737 b 69 363 106 737 69 606 b 351 -8 69 113 119 -8 b 581 90 435 -8 551 1 l 583 90 l 583 -77 b 376 -234 582 -220 504 -234 b 198 -86 263 -234 198 -226 l 91 -86 b 376 -323 80 -297 210 -323 b 691 -86 549 -323 691 -280 l 691 729 "},"²":{"x_min":54.4375,"x_max":533.5625,"ha":575,"o":"m 142 502 l 142 534 b 304 637 142 616 176 627 b 533 851 470 650 533 683 b 302 1050 533 1009 479 1050 b 54 862 72 1050 54 1000 l 54 830 l 142 830 l 142 862 b 302 966 140 956 156 966 b 445 851 415 966 445 959 b 287 720 445 729 413 734 b 54 525 127 705 54 691 l 54 419 l 532 419 l 532 502 l 142 502 "},"–":{"x_min":0,"x_max":680.5625,"ha":694,"o":"m 0 431 l 0 327 l 680 327 l 680 431 l 0 431 "},"ë":{"x_min":70.78125,"x_max":696.890625,"ha":785,"o":"m 586 220 l 586 193 b 392 80 586 90 539 80 b 182 340 198 80 182 109 l 696 340 l 696 413 b 392 737 696 683 623 737 b 70 363 136 737 70 666 b 392 -8 70 86 112 -8 b 696 194 551 -8 696 1 l 696 220 l 586 220 m 182 429 b 392 648 190 597 197 648 b 585 429 555 648 579 636 l 182 429 m 308 906 l 189 906 l 189 804 l 308 804 l 308 906 m 581 906 l 461 906 l 461 804 l 581 804 l 581 906 "},"ƒ":{"x_min":109,"x_max":830,"ha":958,"o":"m 562 583 l 749 583 l 766 673 l 576 673 l 602 826 b 736 959 619 920 627 959 b 815 955 761 959 789 956 l 830 1047 b 747 1050 802 1048 774 1050 b 493 816 566 1050 519 991 l 468 673 l 328 673 l 313 583 l 453 583 l 336 -94 b 202 -233 319 -187 308 -233 b 123 -223 177 -233 149 -229 l 109 -312 b 189 -323 136 -319 162 -323 b 445 -84 378 -323 417 -263 l 562 583 "},"Î":{"x_min":-81.671875,"x_max":393.359375,"ha":317,"o":"m 213 1041 l 98 1041 l 98 0 l 213 0 l 213 1041 m 157 1334 l -81 1184 l -53 1126 l 157 1231 l 360 1126 l 393 1184 l 157 1334 "},"e":{"x_min":70.78125,"x_max":696.890625,"ha":785,"o":"m 586 220 l 586 193 b 392 80 586 90 539 80 b 182 340 198 80 182 109 l 696 340 l 696 413 b 392 737 696 683 623 737 b 70 363 136 737 70 666 b 392 -8 70 86 112 -8 b 696 194 551 -8 696 1 l 696 220 l 586 220 m 182 429 b 392 648 190 597 197 648 b 585 429 555 648 579 636 l 182 429 "},"Ã":{"x_min":8,"x_max":924,"ha":951,"o":"m 723 220 l 804 0 l 924 0 l 542 1041 l 379 1041 l 8 0 l 129 0 l 208 220 l 723 220 m 691 317 l 239 317 l 463 944 l 691 317 m 638 1269 b 559 1207 621 1239 594 1207 b 465 1238 533 1207 499 1223 b 365 1267 431 1252 395 1267 b 235 1164 300 1267 262 1219 l 296 1128 b 364 1185 314 1159 325 1185 b 457 1156 391 1185 424 1170 b 556 1126 491 1141 525 1126 b 696 1230 620 1126 666 1177 l 638 1269 "},"J":{"x_min":39.46875,"x_max":671.03125,"ha":785,"o":"m 556 1041 l 555 234 b 340 95 555 95 445 95 b 155 261 176 95 155 131 l 155 379 l 39 379 l 39 226 b 360 -8 39 20 183 -8 b 671 251 543 -8 671 43 l 671 1041 l 556 1041 "},"»":{"x_min":76,"x_max":608,"ha":699,"o":"m 345 750 l 505 401 l 327 50 l 402 0 l 608 401 l 424 798 l 345 750 m 93 750 l 254 401 l 76 50 l 150 0 l 356 401 l 172 798 l 93 750 "},"∆":{"x_min":50.03125,"x_max":1032.75,"ha":1107,"o":"m 50 0 l 1032 0 l 1032 75 l 605 1050 l 481 1050 l 50 75 l 50 0 m 158 83 l 431 698 b 534 948 461 772 519 901 l 541 948 b 658 669 563 884 628 744 l 915 83 l 158 83 "},"©":{"x_min":10.890625,"x_max":1050.78125,"ha":1083,"o":"m 532 1050 b 10 520 243 1050 10 812 b 532 -8 10 226 243 -8 b 1050 520 819 -8 1050 226 b 532 1050 1050 812 819 1050 m 532 966 b 966 523 773 966 966 766 b 532 75 966 275 773 75 b 95 523 289 75 95 275 b 532 966 95 766 289 966 m 714 423 b 555 288 703 336 637 288 b 348 526 420 288 348 398 b 552 758 348 658 415 758 b 714 629 635 758 699 712 l 796 629 b 551 829 775 755 676 829 b 266 525 374 829 266 700 b 555 218 266 351 381 218 b 796 423 675 218 782 297 l 714 423 "},"˘":{"x_min":102,"x_max":561,"ha":676,"o":"m 102 1023 b 330 812 114 905 215 812 b 561 1023 447 812 548 905 l 487 1023 b 330 891 473 947 407 891 b 174 1023 255 891 187 947 l 102 1023 "},"≥":{"x_min":84.390625,"x_max":845.25,"ha":951,"o":"m 93 909 l 93 827 l 764 518 l 764 515 l 93 204 l 93 123 l 843 479 l 843 552 l 93 909 m 845 -9 l 845 58 l 84 58 l 84 -9 l 845 -9 "},"ò":{"x_min":70.78125,"x_max":705.0625,"ha":792,"o":"m 70 363 b 387 -8 70 56 122 -8 b 705 363 653 -8 705 56 b 387 737 705 672 653 737 b 70 363 122 737 70 672 m 182 363 b 387 648 182 618 196 648 b 593 363 579 648 593 618 b 387 80 593 111 579 80 b 182 363 196 80 182 111 m 287 1031 l 232 956 l 453 818 l 488 875 l 287 1031 "},"^":{"x_min":68,"x_max":727,"ha":811,"o":"m 349 1042 l 68 362 l 176 362 l 397 906 l 618 362 l 727 362 l 445 1042 l 349 1042 "},"«":{"x_min":76,"x_max":608,"ha":699,"o":"m 259 798 l 76 401 l 281 0 l 356 50 l 178 401 l 338 750 l 259 798 m 511 798 l 327 401 l 533 0 l 608 50 l 429 401 l 590 750 l 511 798 "},"D":{"x_min":87.109375,"x_max":933.71875,"ha":1019,"o":"m 87 0 l 611 0 b 933 391 917 0 933 288 l 933 640 b 583 1041 933 1025 707 1041 l 87 1041 l 87 0 m 202 104 l 202 937 l 602 937 b 818 686 797 937 818 744 l 818 412 b 583 104 815 226 788 104 l 202 104 "},"∙":{"x_min":174.21875,"x_max":295.359375,"ha":479,"o":"m 295 465 l 174 465 l 174 323 l 295 323 l 295 465 "},"ł":{"x_min":4.078125,"x_max":287.1875,"ha":297,"o":"m 200 592 l 287 681 l 287 778 l 200 690 l 200 1041 l 92 1041 l 92 602 l 4 515 l 4 415 l 92 503 l 92 0 l 200 0 l 200 592 "},"ÿ":{"x_min":-5.4375,"x_max":600.25,"ha":607,"o":"m 600 729 l 488 729 l 328 80 l 325 80 l 104 729 l -5 729 l 253 0 l 291 0 b 142 -236 266 -83 254 -236 b 104 -231 129 -236 117 -234 l 104 -316 b 153 -323 119 -319 136 -323 b 394 -51 325 -323 356 -188 l 600 729 m 221 906 l 102 906 l 102 804 l 221 804 l 221 906 m 494 906 l 374 906 l 374 804 l 494 804 l 494 906 "},"Ł":{"x_min":-12.25,"x_max":737.71875,"ha":775,"o":"m 217 554 l 431 768 l 431 886 l 217 672 l 217 1041 l 102 1041 l 102 572 l -12 463 l -12 344 l 102 454 l 102 0 l 737 0 l 737 104 l 217 104 l 217 554 "},"í":{"x_min":19.0625,"x_max":274.9375,"ha":299,"o":"m 200 729 l 92 729 l 92 0 l 200 0 l 200 729 m 221 1031 l 19 875 l 55 818 l 274 956 l 221 1031 "},"ˆ":{"x_min":102,"x_max":577.03125,"ha":693,"o":"m 341 1022 l 102 872 l 130 814 l 341 919 l 544 814 l 577 872 l 341 1022 "},"w":{"x_min":5,"x_max":1022,"ha":1047,"o":"m 1022 729 l 910 729 l 748 76 l 745 76 l 590 729 l 436 729 l 280 76 l 277 76 l 115 729 l 5 729 l 198 0 l 356 0 l 510 652 l 512 652 l 665 0 l 821 0 l 1022 729 "},"$":{"x_min":40.828125,"x_max":901.0625,"ha":958,"o":"m 426 578 b 164 765 265 576 164 574 b 426 944 164 944 245 944 l 426 578 m 514 480 b 785 287 698 474 785 486 b 514 97 785 105 715 97 l 514 480 m 514 944 b 760 782 720 944 760 935 l 760 750 l 876 750 l 876 782 b 514 1042 876 1031 759 1042 l 514 1139 l 426 1139 l 426 1042 b 49 747 179 1042 49 1018 b 426 480 49 487 208 482 l 426 97 b 156 287 164 97 156 128 l 156 324 l 40 324 l 40 287 b 426 0 40 15 174 0 l 426 -117 l 514 -117 l 514 0 b 901 303 784 0 901 37 b 514 578 901 578 730 574 l 514 944 "},"∫":{"x_min":12.25,"x_max":536.28125,"ha":565,"o":"m 536 1218 b 447 1241 519 1229 481 1241 b 307 1187 398 1241 347 1227 b 221 880 245 1129 221 1037 b 245 136 221 652 245 370 b 185 -120 245 -18 219 -80 b 108 -154 166 -141 136 -154 b 31 -133 74 -154 44 -140 l 12 -205 b 118 -231 31 -218 77 -231 b 266 -159 175 -231 232 -208 b 336 133 300 -112 336 -26 b 314 869 336 366 314 643 b 371 1133 314 1005 329 1087 b 454 1166 393 1158 428 1166 b 517 1148 476 1166 503 1158 l 536 1218 "},"\\":{"x_min":-67.5,"x_max":447,"ha":386,"o":"m 323 -156 l 447 -156 l 59 1041 l -67 1041 l 323 -156 "},"Ì":{"x_min":27.21875,"x_max":283.109375,"ha":317,"o":"m 213 1041 l 98 1041 l 98 0 l 213 0 l 213 1041 m 81 1344 l 27 1269 l 247 1130 l 283 1187 l 81 1344 "},"µ":{"x_min":92.5625,"x_max":683.28125,"ha":792,"o":"m 574 0 l 683 0 l 683 729 l 575 729 l 575 279 b 347 80 575 107 498 80 b 200 261 208 80 200 143 l 200 729 l 92 729 l 92 -314 l 200 -314 l 200 19 b 348 -7 236 0 285 -7 b 571 97 442 -7 533 8 l 574 97 l 574 0 "},"Ç":{"x_min":61.25,"x_max":875.203125,"ha":924,"o":"m 461 -55 l 371 -213 l 430 -245 l 534 -97 l 461 -55 m 521 -8 b 875 256 725 -8 875 18 l 875 354 l 759 354 l 759 270 b 517 95 759 122 702 95 l 379 95 b 176 440 186 95 176 202 l 176 726 b 500 945 176 916 261 945 l 566 945 b 745 745 715 945 745 891 l 745 716 l 861 716 l 861 750 b 582 1050 861 955 796 1050 l 487 1050 b 61 722 239 1050 61 1016 l 61 319 b 357 -8 61 111 171 -8 l 521 -8 "},"’":{"x_min":69.421875,"x_max":205.53125,"ha":279,"o":"m 136 900 l 136 873 b 69 806 136 822 118 808 l 69 744 l 100 744 b 205 873 191 744 205 800 l 205 1041 l 84 1041 l 84 900 l 136 900 "},"-":{"x_min":0,"x_max":355.25,"ha":363,"o":"m 0 431 l 0 327 l 355 327 l 355 431 l 0 431 "},"Q":{"x_min":67.921875,"x_max":998.921875,"ha":1024,"o":"m 998 127 l 913 186 b 934 390 932 243 934 304 l 934 684 b 579 1050 934 955 841 1050 l 420 1050 b 67 684 164 1041 67 941 l 67 390 b 420 -8 67 109 130 -8 l 579 -8 b 875 100 704 -8 808 16 l 951 47 l 998 127 m 517 452 l 464 372 l 782 161 b 602 95 748 111 672 95 l 408 95 b 183 369 235 95 183 138 l 183 708 b 408 945 183 883 235 945 l 602 945 b 819 725 786 945 819 852 l 819 337 b 811 255 819 313 819 277 l 517 452 "},"M":{"x_min":95.28125,"x_max":1218.203125,"ha":1340,"o":"m 1099 952 l 1102 952 l 1102 0 l 1218 0 l 1218 1041 l 1018 1041 l 656 150 l 295 1041 l 95 1041 l 95 0 l 210 0 l 210 952 l 213 952 l 600 0 l 714 0 l 1099 952 "},"C":{"x_min":61.25,"x_max":875.203125,"ha":924,"o":"m 521 -8 b 875 256 725 -8 875 18 l 875 354 l 759 354 l 759 270 b 517 95 759 122 702 95 l 379 95 b 176 440 186 95 176 202 l 176 726 b 500 945 176 916 261 945 l 566 945 b 745 745 715 945 745 891 l 745 716 l 861 716 l 861 750 b 582 1050 861 955 796 1050 l 487 1050 b 61 722 239 1050 61 1016 l 61 319 b 357 -8 61 111 171 -8 l 521 -8 "},"œ":{"x_min":69.421875,"x_max":1214.109375,"ha":1308,"o":"m 588 363 b 385 80 588 129 582 80 b 181 363 196 80 181 126 b 371 648 181 601 182 648 b 588 363 578 648 588 630 m 69 363 b 375 -8 69 105 103 -8 b 643 93 469 -8 605 -13 b 909 -8 686 -1 792 -8 b 1214 194 1068 -8 1214 1 l 1214 220 l 1103 220 l 1103 193 b 909 80 1103 90 1056 80 b 699 340 715 80 699 109 l 1214 340 l 1214 413 b 909 737 1214 683 1140 737 b 645 634 803 737 679 731 l 642 634 b 367 737 620 744 453 737 b 69 363 87 737 69 615 m 699 429 b 909 648 707 597 714 648 b 1102 429 1072 648 1097 636 l 699 429 "},"!":{"x_min":126.578125,"x_max":247.71875,"ha":375,"o":"m 247 141 l 126 141 l 126 0 l 247 0 l 247 141 m 247 1041 l 126 1041 l 137 287 l 236 287 l 247 1041 "},"ç":{"x_min":66.6875,"x_max":687.359375,"ha":758,"o":"m 379 -55 l 289 -213 l 348 -245 l 453 -97 l 379 -55 m 579 263 l 579 227 b 396 80 579 95 530 80 b 178 348 186 80 178 143 b 372 648 178 581 182 648 b 567 513 496 648 567 645 l 567 491 l 675 491 l 675 511 b 366 737 675 718 539 737 b 66 379 107 737 66 616 b 383 -8 66 108 87 -8 b 687 223 553 -8 687 18 l 687 263 l 579 263 "},"È":{"x_min":55.8125,"x_max":711.859375,"ha":778,"o":"m 171 937 l 711 937 l 711 1041 l 55 1041 l 55 0 l 711 0 l 711 104 l 171 104 l 171 486 l 688 486 l 688 583 l 171 583 l 171 937 m 307 1344 l 253 1269 l 473 1130 l 509 1187 l 307 1344 "},"ﬁ":{"x_min":10.890625,"x_max":600.25,"ha":707,"o":"m 600 729 l 492 729 l 492 0 l 600 0 l 600 729 m 227 729 l 227 827 b 349 961 227 925 242 961 b 416 958 371 961 394 959 l 416 1047 b 349 1050 394 1048 371 1050 b 119 816 174 1050 119 994 l 119 729 l 10 729 l 10 640 l 119 640 l 119 0 l 227 0 l 227 640 l 416 640 l 416 729 l 227 729 m 600 1041 l 492 1041 l 492 920 l 600 920 l 600 1041 "},"{":{"x_min":65.875,"x_max":396.625,"ha":464,"o":"m 65 369 b 172 184 158 356 172 291 l 172 -43 b 283 -208 172 -143 246 -208 l 396 -208 l 396 -104 l 336 -104 b 287 -18 297 -104 287 -72 l 287 206 b 189 420 287 351 201 411 b 287 634 201 429 287 490 l 287 861 b 336 945 287 915 297 945 l 396 945 l 396 1050 l 283 1050 b 172 884 246 1050 172 983 l 172 656 b 65 473 172 548 158 484 l 65 369 "},"X":{"x_min":-8,"x_max":897,"ha":907,"o":"m 872 1041 l 736 1041 l 450 595 l 160 1041 l 21 1041 l 356 538 l -8 0 l 133 0 l 450 479 l 760 0 l 897 0 l 545 538 l 872 1041 "},"ô":{"x_min":71.265625,"x_max":705.546875,"ha":792,"o":"m 71 363 b 388 -8 71 56 122 -8 b 705 363 653 -8 705 56 b 388 737 705 672 653 737 b 71 363 122 737 71 672 m 182 363 b 388 648 182 618 196 648 b 593 363 580 648 593 618 b 388 80 593 111 580 80 b 182 363 196 80 182 111 m 391 1022 l 151 872 l 180 813 l 391 919 l 593 813 l 626 872 l 391 1022 "},"¼":{"x_min":74.484375,"x_max":1335.390625,"ha":1438,"o":"m 1245 625 l 1120 625 l 790 226 l 790 126 l 1157 126 l 1157 0 l 1245 0 l 1245 126 l 1335 126 l 1335 209 l 1245 209 l 1245 625 m 1093 1041 l 997 1041 l 308 0 l 399 0 l 1093 1041 m 1157 209 l 859 209 l 1153 565 l 1157 565 l 1157 209 m 379 1041 l 256 1041 l 74 854 l 120 797 l 290 975 l 290 416 l 379 416 l 379 1041 "},"#":{"x_min":110.046875,"x_max":828.953125,"ha":958,"o":"m 371 1041 l 322 758 l 160 758 l 160 647 l 303 647 l 266 420 l 110 420 l 110 309 l 246 309 l 195 0 l 297 0 l 352 309 l 519 309 l 469 0 l 573 0 l 624 309 l 784 309 l 784 420 l 646 420 l 683 647 l 828 647 l 828 758 l 703 758 l 751 1041 l 643 1041 l 596 758 l 427 758 l 476 1041 l 371 1041 m 409 647 l 577 647 l 540 420 l 372 420 l 409 647 "},"Ê":{"x_min":56.234375,"x_max":712.28125,"ha":778,"o":"m 171 937 l 712 937 l 712 1041 l 56 1041 l 56 0 l 712 0 l 712 104 l 171 104 l 171 486 l 689 486 l 689 583 l 171 583 l 171 937 m 384 1334 l 144 1184 l 173 1126 l 384 1231 l 587 1126 l 619 1184 l 384 1334 "},")":{"x_min":84.390625,"x_max":349.8125,"ha":433,"o":"m 84 945 l 121 945 b 234 723 234 945 234 806 l 234 118 b 121 -104 234 34 234 -104 l 84 -104 l 84 -208 l 121 -208 b 349 118 322 -208 349 -55 l 349 723 b 121 1050 349 897 322 1050 l 84 1050 l 84 945 "},"Å":{"x_min":8.171875,"x_max":924.203125,"ha":951,"o":"m 724 220 l 804 0 l 924 0 l 543 1041 l 379 1041 l 8 0 l 129 0 l 208 220 l 724 220 m 691 318 l 239 318 l 464 944 l 691 318 m 348 1213 b 465 1093 348 1147 401 1093 b 583 1213 530 1093 583 1147 b 465 1334 583 1279 530 1334 b 348 1213 401 1334 348 1279 m 400 1213 b 465 1281 400 1251 428 1281 b 532 1213 502 1281 532 1251 b 465 1145 532 1176 502 1145 b 400 1213 428 1145 400 1176 "},"ø":{"x_min":42.5,"x_max":724.421875,"ha":792,"o":"m 724 750 l 642 669 b 393 737 580 737 469 737 b 71 364 101 737 69 647 b 98 125 71 294 68 186 l 42 69 l 42 -21 l 128 62 b 393 -7 186 -3 317 -7 b 705 364 669 -7 701 97 b 678 605 706 465 706 537 l 724 655 l 724 750 m 591 514 b 593 364 593 464 593 414 b 393 80 586 100 580 80 b 207 142 348 80 223 80 l 591 514 m 186 215 b 182 364 184 262 184 314 b 393 649 175 628 207 649 b 569 592 433 649 544 649 l 186 215 "},"â":{"x_min":67.296875,"x_max":685.265625,"ha":792,"o":"m 358 81 b 178 226 234 81 178 87 b 358 353 178 344 230 353 b 575 217 494 353 575 354 b 358 81 575 83 466 81 m 685 0 l 685 497 b 374 737 686 719 554 739 b 89 539 215 739 89 726 l 89 524 l 200 524 l 200 549 b 387 649 199 649 302 649 b 577 503 508 649 577 636 l 577 368 l 570 368 b 346 442 555 435 417 442 b 67 212 169 442 67 414 b 339 -7 67 22 178 -7 b 575 78 429 -7 534 -5 l 577 75 l 577 0 l 685 0 m 391 1022 l 151 872 l 180 814 l 391 919 l 594 814 l 626 872 l 391 1022 "},"}":{"x_min":58.375,"x_max":389.125,"ha":464,"o":"m 389 472 b 282 656 296 484 282 550 l 282 884 b 171 1050 282 984 208 1050 l 58 1050 l 58 945 l 118 945 b 167 859 157 945 167 913 l 167 634 b 265 420 167 490 253 430 b 167 206 253 412 167 351 l 167 -19 b 118 -104 167 -73 157 -104 l 58 -104 l 58 -208 l 171 -208 b 282 -43 208 -208 282 -141 l 282 184 b 389 368 282 293 296 356 l 389 472 "},"‰":{"x_min":29.9375,"x_max":1715,"ha":1781,"o":"m 1091 183 b 947 68 1091 68 1060 68 b 812 183 835 68 812 68 l 812 336 b 947 444 812 443 835 444 b 1091 336 1067 444 1091 443 l 1091 183 m 1173 333 b 947 520 1170 500 1106 520 b 730 331 789 520 735 498 l 730 179 b 948 -8 735 12 789 -8 b 1173 180 1106 -8 1170 13 l 1173 333 m 992 1041 l 896 1041 l 208 -8 l 299 -8 l 992 1041 m 1715 333 b 1489 520 1712 500 1648 520 b 1272 331 1331 520 1276 498 l 1272 179 b 1490 -8 1276 12 1331 -8 b 1715 180 1648 -8 1712 13 l 1715 333 m 1633 183 b 1489 68 1633 68 1602 68 b 1354 183 1377 68 1354 68 l 1354 336 b 1489 444 1354 443 1377 444 b 1633 336 1608 444 1633 443 l 1633 183 m 472 862 b 246 1050 469 1029 405 1050 b 29 861 88 1050 34 1027 l 29 708 b 247 520 34 541 88 520 b 472 709 405 520 469 543 l 472 862 m 390 712 b 246 597 390 597 359 597 b 111 712 134 597 111 597 l 111 865 b 246 973 111 972 134 973 b 390 865 366 973 390 972 l 390 712 "},"Ä":{"x_min":8.171875,"x_max":924.203125,"ha":951,"o":"m 724 220 l 804 0 l 924 0 l 543 1041 l 379 1041 l 8 0 l 129 0 l 208 220 l 724 220 m 691 318 l 239 318 l 464 944 l 691 318 m 390 1219 l 270 1219 l 270 1116 l 390 1116 l 390 1219 m 662 1219 l 543 1219 l 543 1116 l 662 1116 l 662 1219 "},"¸":{"x_min":87,"x_max":250.328125,"ha":375,"o":"m 176 -56 l 87 -214 l 145 -246 l 250 -97 l 176 -56 "},"a":{"x_min":66.6875,"x_max":684.65625,"ha":792,"o":"m 357 81 b 178 226 234 81 178 87 b 357 353 178 344 230 353 b 574 217 494 353 574 354 b 357 81 574 83 465 81 m 684 0 l 684 497 b 374 737 686 719 553 739 b 88 539 215 739 88 726 l 88 524 l 200 524 l 200 549 b 386 649 198 649 302 649 b 577 503 507 649 577 636 l 577 368 l 570 368 b 345 442 555 435 416 442 b 66 212 168 442 66 414 b 338 -7 66 22 178 -7 b 574 78 428 -7 533 -5 l 577 75 l 577 0 l 684 0 "},"—":{"x_min":0,"x_max":1361.109375,"ha":1389,"o":"m 0 431 l 0 327 l 1361 327 l 1361 431 l 0 431 "},"=":{"x_min":68.0625,"x_max":726.828125,"ha":811,"o":"m 68 554 l 68 450 l 726 450 l 726 554 l 68 554 m 68 338 l 68 234 l 726 234 l 726 338 l 68 338 "},"N":{"x_min":92.5625,"x_max":973.203125,"ha":1088,"o":"m 973 1041 l 857 1041 l 857 90 l 854 90 l 283 1041 l 92 1041 l 92 0 l 208 0 l 208 944 l 210 944 l 784 0 l 973 0 l 973 1041 "},"˚":{"x_min":102.078125,"x_max":337.5625,"ha":449,"o":"m 102 901 b 219 780 102 834 155 780 b 337 901 284 780 337 834 b 219 1022 337 966 284 1022 b 102 901 155 1022 102 966 m 153 901 b 219 969 153 938 182 969 b 285 901 255 969 285 938 b 219 833 285 863 255 833 b 153 901 182 833 153 863 "},"ú":{"x_min":89.828125,"x_max":680.5625,"ha":792,"o":"m 571 0 l 680 0 l 680 729 l 573 729 l 573 279 b 344 80 573 105 495 80 b 197 261 205 80 197 143 l 197 729 l 89 729 l 89 261 b 345 -8 89 69 156 -8 b 568 97 439 -8 530 8 l 571 97 l 571 0 m 462 1031 l 259 875 l 296 818 l 515 956 l 462 1031 "},"⁄":{"x_min":-7,"x_max":777,"ha":786,"o":"m 777 1041 l 681 1041 l -7 0 l 84 0 l 777 1041 "},"2":{"x_min":98,"x_max":835.71875,"ha":958,"o":"m 833 104 l 213 104 l 213 193 b 483 387 213 345 266 369 b 835 720 740 408 835 444 b 480 1050 835 984 751 1050 b 98 738 126 1050 98 966 l 98 684 l 213 684 l 213 738 b 480 945 209 930 235 945 b 720 720 673 945 720 936 b 455 491 720 504 672 513 b 98 176 210 465 98 447 l 98 0 l 833 0 l 833 104 "},"ü":{"x_min":89.828125,"x_max":680.5625,"ha":792,"o":"m 571 0 l 680 0 l 680 729 l 573 729 l 573 279 b 344 80 573 105 495 80 b 197 261 205 80 197 143 l 197 729 l 89 729 l 89 261 b 345 -8 89 69 156 -8 b 568 97 439 -8 530 8 l 571 97 l 571 0 m 311 906 l 191 906 l 191 804 l 311 804 l 311 906 m 583 906 l 464 906 l 464 804 l 583 804 l 583 906 "},"¯":{"x_min":107.53125,"x_max":483.1875,"ha":603,"o":"m 107 900 l 107 811 l 483 811 l 483 900 l 107 900 "},"Z":{"x_min":34.796875,"x_max":831.046875,"ha":885,"o":"m 817 1041 l 53 1041 l 53 937 l 675 937 l 34 102 l 34 0 l 831 0 l 831 104 l 174 104 l 817 931 l 817 1041 "},"u":{"x_min":89.828125,"x_max":680.5625,"ha":792,"o":"m 571 0 l 680 0 l 680 729 l 573 729 l 573 279 b 344 80 573 105 495 80 b 197 261 205 80 197 143 l 197 729 l 89 729 l 89 261 b 345 -8 89 69 156 -8 b 568 97 439 -8 530 8 l 571 97 l 571 0 "},"˜":{"x_min":102,"x_max":563.421875,"ha":679,"o":"m 504 957 b 425 895 488 927 461 895 b 332 926 400 895 366 911 b 232 955 298 940 262 955 b 102 852 167 955 129 907 l 163 816 b 231 873 180 847 191 873 b 323 844 258 873 291 858 b 423 814 357 829 391 814 b 563 918 487 814 533 865 l 504 957 "},"Ó":{"x_min":55.8125,"x_max":857.5,"ha":932,"o":"m 387 1050 b 55 700 133 1047 55 961 l 55 329 b 387 -8 55 83 142 -8 l 525 -8 b 857 329 770 -8 857 83 l 857 700 b 525 1050 857 961 779 1047 l 387 1050 m 525 945 b 741 700 696 945 741 902 l 741 329 b 525 95 741 122 675 97 l 387 95 b 171 329 238 97 171 122 l 171 700 b 387 945 171 902 216 945 l 525 945 m 532 1344 l 329 1187 l 366 1130 l 585 1269 l 532 1344 "},"k":{"x_min":92.5625,"x_max":688.71875,"ha":676,"o":"m 200 1041 l 92 1041 l 92 0 l 200 0 l 200 350 l 243 350 l 547 0 l 688 0 l 326 394 l 632 729 l 500 729 l 243 438 l 200 438 l 200 1041 "},"ˇ":{"x_min":101.96875,"x_max":577,"ha":693,"o":"m 336 814 l 577 962 l 548 1022 l 336 916 l 134 1022 l 101 962 l 336 814 "},"Ù":{"x_min":98,"x_max":906.5,"ha":1024,"o":"m 790 1041 l 790 291 b 502 95 790 97 707 95 b 213 291 253 95 213 122 l 213 1041 l 98 1041 l 98 291 b 502 -8 98 -2 279 -8 b 906 291 743 -8 906 12 l 906 1041 l 790 1041 m 374 1344 l 319 1269 l 540 1130 l 575 1187 l 374 1344 "},"Ÿ":{"x_min":-8.171875,"x_max":868.390625,"ha":878,"o":"m 868 1041 l 730 1041 l 428 554 l 126 1041 l -8 1041 l 366 434 l 366 0 l 481 0 l 481 434 l 868 1041 m 353 1219 l 234 1219 l 234 1116 l 353 1116 l 353 1219 m 626 1219 l 506 1219 l 506 1116 l 626 1116 l 626 1219 "},"€":{"x_min":16.328125,"x_max":929.640625,"ha":958,"o":"m 929 931 b 617 1050 824 1055 684 1050 l 465 1050 b 142 722 340 1050 142 1000 l 142 669 l 43 669 l 16 579 l 142 579 l 142 493 l 43 493 l 16 402 l 142 402 l 142 319 b 439 -8 142 111 253 -8 l 611 -8 b 895 88 671 -8 815 -11 l 895 226 b 653 95 841 126 747 95 l 461 95 b 258 402 279 95 259 191 l 767 402 l 794 493 l 258 493 l 258 579 l 820 579 l 847 669 l 258 669 l 258 726 b 465 945 258 908 348 945 l 649 945 b 888 806 754 945 845 901 l 929 931 "},"¢":{"x_min":134.75,"x_max":760.859375,"ha":958,"o":"m 408 195 b 250 481 262 202 250 276 b 408 761 250 666 250 754 l 408 195 m 408 952 l 408 851 b 134 481 159 844 134 693 b 408 105 134 276 159 100 l 408 -9 l 496 -9 l 496 105 b 760 337 669 101 756 156 l 760 377 l 651 377 l 651 337 b 496 195 649 216 602 195 l 496 761 b 637 605 608 756 643 723 l 745 605 b 496 851 751 798 643 848 l 496 952 l 408 952 "},"Ω":{"x_min":85.75,"x_max":1141.96875,"ha":1254,"o":"m 343 83 l 85 83 l 85 0 l 487 0 l 487 62 b 216 525 351 131 216 298 b 619 952 216 756 375 952 b 1012 530 873 952 1012 726 b 741 62 1012 287 876 133 l 741 0 l 1141 0 l 1141 83 l 882 83 l 882 87 b 1118 544 999 165 1118 325 b 617 1036 1118 798 920 1036 b 108 540 333 1036 108 826 b 343 87 108 329 221 173 l 343 83 "},"ß":{"x_min":112.96875,"x_max":732.28125,"ha":819,"o":"m 112 0 l 220 0 l 220 815 b 394 961 220 945 276 961 b 567 829 510 961 567 952 b 396 713 567 763 558 713 l 329 713 l 329 625 l 419 625 b 620 347 607 625 620 516 b 491 80 620 108 585 80 b 389 195 415 80 389 123 l 389 220 l 287 220 l 287 170 b 491 -8 287 45 378 -8 b 732 347 718 -8 732 165 b 543 669 732 506 724 640 l 543 672 b 679 845 628 695 679 750 b 394 1050 679 1025 533 1050 b 112 815 204 1050 112 1016 l 112 0 "},"é":{"x_min":70.78125,"x_max":696.890625,"ha":785,"o":"m 586 220 l 586 193 b 392 80 586 90 539 80 b 182 340 198 80 182 109 l 696 340 l 696 413 b 392 737 696 683 623 737 b 70 363 136 737 70 666 b 392 -8 70 86 112 -8 b 696 194 551 -8 696 1 l 696 220 l 586 220 m 182 429 b 392 648 190 597 197 648 b 585 429 555 648 579 636 l 182 429 m 460 1031 l 257 875 l 294 818 l 513 956 l 460 1031 "},"s":{"x_min":62.609375,"x_max":677.828125,"ha":746,"o":"m 658 566 b 379 737 658 732 504 737 b 68 522 186 737 68 733 b 379 320 68 315 224 332 b 566 201 510 312 566 337 b 379 89 566 72 453 89 b 174 173 216 89 174 104 l 174 230 l 62 230 l 62 162 b 379 -8 62 0 224 -8 b 677 205 539 -8 677 0 b 326 425 677 443 510 414 b 179 551 215 430 179 420 b 379 640 179 641 245 640 b 547 566 492 640 547 640 l 547 539 l 658 539 l 658 566 "},"B":{"x_min":83.03125,"x_max":867.03125,"ha":964,"o":"m 198 483 l 578 483 b 751 279 730 486 751 416 b 564 104 751 119 690 104 l 198 104 l 198 483 m 626 0 b 867 290 798 0 867 102 b 709 544 867 419 845 519 l 709 547 b 837 766 815 583 837 656 b 600 1041 837 948 792 1041 l 83 1041 l 83 0 l 626 0 m 198 937 l 547 937 b 721 781 668 937 721 922 b 534 587 721 619 673 587 l 198 587 l 198 937 "},"…":{"x_min":167.421875,"x_max":1195.0625,"ha":1389,"o":"m 288 141 l 167 141 l 167 0 l 288 0 l 288 141 m 741 141 l 620 141 l 620 0 l 741 0 l 741 141 m 1195 141 l 1073 141 l 1073 0 l 1195 0 l 1195 141 "},"?":{"x_min":77.578125,"x_max":718.671875,"ha":811,"o":"m 406 297 l 406 334 b 540 463 406 416 426 423 b 718 772 705 522 718 604 b 405 1050 718 998 628 1050 b 77 772 185 1050 83 1026 l 77 712 l 186 712 l 186 772 b 405 945 186 937 235 945 b 609 772 573 945 609 927 b 483 556 609 612 594 602 b 291 334 328 498 291 469 l 291 297 l 406 297 m 409 141 l 288 141 l 288 0 l 409 0 l 409 141 "},"H":{"x_min":96.640625,"x_max":925.5625,"ha":1042,"o":"m 925 1041 l 809 1041 l 809 583 l 212 583 l 212 1041 l 96 1041 l 96 0 l 212 0 l 212 479 l 809 479 l 809 0 l 925 0 l 925 1041 "},"î":{"x_min":-91.1875,"x_max":383.828125,"ha":299,"o":"m 200 729 l 92 729 l 92 0 l 200 0 l 200 729 m 148 1022 l -91 872 l -62 813 l 148 919 l 351 813 l 383 872 l 148 1022 "},"c":{"x_min":66.6875,"x_max":687.359375,"ha":758,"o":"m 579 263 l 579 227 b 396 80 579 95 530 80 b 178 348 186 80 178 143 b 372 648 178 581 182 648 b 567 513 496 648 567 645 l 567 491 l 675 491 l 675 511 b 366 737 675 718 539 737 b 66 379 107 737 66 616 b 383 -8 66 108 87 -8 b 687 223 553 -8 687 18 l 687 263 l 579 263 "},"¶":{"x_min":46.28125,"x_max":892.890625,"ha":958,"o":"m 892 -290 l 892 1041 l 329 1041 b 46 722 95 1041 46 923 b 329 408 46 447 161 408 l 567 408 l 567 -290 l 669 -290 l 669 944 l 790 944 l 790 -290 l 892 -290 m 567 505 l 329 505 b 161 722 228 505 161 530 b 329 944 161 887 171 944 l 567 944 l 567 505 "},"−":{"x_min":68.0625,"x_max":726.828125,"ha":811,"o":"m 68 341 l 726 341 l 726 445 l 68 445 l 68 341 "},"≠":{"x_min":83.015625,"x_max":847.984375,"ha":951,"o":"m 656 769 l 600 797 l 510 604 l 83 604 l 83 536 l 480 536 l 368 294 l 83 294 l 83 225 l 337 225 l 258 55 l 313 27 l 405 225 l 847 225 l 847 294 l 435 294 l 549 536 l 847 536 l 847 604 l 578 604 l 656 769 "},"•":{"x_min":99.328125,"x_max":609.78125,"ha":722,"o":"m 609 520 b 353 781 609 665 495 781 b 99 520 210 781 96 665 b 353 261 99 375 213 261 b 609 520 495 261 609 377 "},"¥":{"x_min":51.71875,"x_max":887.453125,"ha":958,"o":"m 687 711 l 887 1041 l 754 1041 l 472 554 l 186 1041 l 51 1041 l 246 711 l 112 711 l 112 613 l 302 613 l 393 458 l 112 458 l 112 361 l 406 361 l 406 0 l 522 0 l 522 361 l 826 361 l 826 458 l 536 458 l 628 613 l 826 613 l 826 711 l 687 711 "},"(":{"x_min":74.859375,"x_max":340.28125,"ha":433,"o":"m 340 1050 l 303 1050 b 74 723 102 1050 74 897 l 74 118 b 303 -208 74 -55 102 -208 l 340 -208 l 340 -104 l 303 -104 b 190 118 190 -104 190 34 l 190 723 b 303 945 190 806 190 945 l 340 945 l 340 1050 "},"U":{"x_min":98,"x_max":906.5,"ha":1024,"o":"m 790 1041 l 790 291 b 502 95 790 97 707 95 b 213 291 253 95 213 122 l 213 1041 l 98 1041 l 98 291 b 502 -8 98 -2 279 -8 b 906 291 743 -8 906 12 l 906 1041 l 790 1041 "},"◊":{"x_min":88,"x_max":838,"ha":947,"o":"m 838 508 l 504 1094 l 421 1094 l 88 508 l 420 -76 l 503 -76 l 838 508 m 741 505 l 496 70 b 466 4 485 51 471 22 l 462 4 b 432 70 456 20 446 43 l 183 511 l 426 943 b 459 1011 440 966 451 990 l 462 1011 b 493 943 469 993 482 963 l 741 505 "},"Ñ":{"x_min":92.5625,"x_max":973.203125,"ha":1088,"o":"m 973 1041 l 857 1041 l 857 89 l 854 89 l 283 1041 l 92 1041 l 92 0 l 208 0 l 208 944 l 210 944 l 784 0 l 973 0 l 973 1041 m 705 1269 b 626 1207 688 1239 661 1207 b 532 1238 600 1207 566 1223 b 432 1267 498 1252 462 1267 b 302 1164 367 1267 329 1219 l 363 1128 b 431 1185 381 1159 392 1185 b 524 1156 458 1185 491 1170 b 623 1126 558 1141 592 1126 b 763 1230 687 1126 733 1177 l 705 1269 "},"F":{"x_min":88.46875,"x_max":714.578125,"ha":763,"o":"m 204 937 l 714 937 l 714 1041 l 88 1041 l 88 0 l 204 0 l 204 476 l 700 476 l 700 573 l 204 573 l 204 937 "},"­":{"x_min":0,"x_max":355.25,"ha":363,"o":"m 0 431 l 0 327 l 355 327 l 355 431 l 0 431 "},":":{"x_min":149.71875,"x_max":270.859375,"ha":479,"o":"m 270 141 l 149 141 l 149 0 l 270 0 l 270 141 m 270 729 l 149 729 l 149 587 l 270 587 l 270 729 "},"Û":{"x_min":98,"x_max":906.5,"ha":1024,"o":"m 790 1041 l 790 291 b 502 95 790 97 707 95 b 213 291 253 95 213 122 l 213 1041 l 98 1041 l 98 291 b 502 -8 98 -2 279 -8 b 906 291 743 -8 906 12 l 906 1041 l 790 1041 m 503 1334 l 264 1184 l 292 1126 l 503 1231 l 706 1126 l 739 1184 l 503 1334 "},"*":{"x_min":197.359375,"x_max":741.8125,"ha":958,"o":"m 741 818 l 715 895 l 507 816 l 507 1041 l 432 1041 l 432 816 l 223 895 l 197 820 l 405 740 l 274 558 l 334 512 l 470 700 l 597 512 l 657 558 l 532 740 l 741 818 "},"†":{"x_min":176.9375,"x_max":762.21875,"ha":958,"o":"m 526 1041 l 411 1041 l 411 755 l 176 755 l 176 658 l 411 658 l 411 -290 l 526 -290 l 526 658 l 762 658 l 762 755 l 526 755 l 526 1041 "},"∕":{"x_min":-7,"x_max":777,"ha":786,"o":"m 777 1041 l 681 1041 l -7 0 l 84 0 l 777 1041 "},"°":{"x_min":68.046875,"x_max":476.390625,"ha":556,"o":"m 476 841 b 272 1050 476 955 383 1050 b 68 841 159 1050 66 955 b 272 633 68 726 159 633 b 476 841 383 633 476 726 m 408 841 b 272 702 408 763 345 702 b 136 841 197 702 136 763 b 270 980 136 916 197 980 b 408 841 345 980 408 916 "},"V":{"x_min":-8,"x_max":883.53125,"ha":893,"o":"m 759 1041 l 441 90 l 437 90 l 115 1041 l -8 1041 l 356 0 l 521 0 l 883 1041 l 759 1041 "},"å":{"x_min":66.6875,"x_max":684.65625,"ha":792,"o":"m 357 81 b 178 226 234 81 178 87 b 357 353 178 344 230 353 b 574 217 494 353 574 354 b 357 81 574 83 465 81 m 684 0 l 684 497 b 374 737 686 719 553 739 b 88 539 215 739 88 726 l 88 524 l 200 524 l 200 549 b 386 649 198 649 302 649 b 577 503 507 649 577 636 l 577 368 l 570 368 b 345 442 555 435 416 442 b 66 212 168 442 66 414 b 338 -7 66 22 178 -7 b 574 78 428 -7 533 -5 l 577 75 l 577 0 l 684 0 m 270 901 b 387 781 270 835 323 781 b 506 901 453 781 506 835 b 387 1022 506 967 453 1022 b 270 901 323 1022 270 967 m 322 901 b 387 969 322 939 351 969 b 454 901 424 969 454 939 b 387 833 454 864 424 833 b 322 901 351 833 322 864 "}," ":{"x_min":0,"x_max":0,"ha":479},"0":{"x_min":35.390625,"x_max":903.78125,"ha":958,"o":"m 468 945 b 788 673 721 945 788 944 l 788 368 b 468 95 788 97 721 95 b 151 368 217 95 151 97 l 151 673 b 468 945 151 944 217 945 m 470 -8 b 903 368 786 -8 896 34 l 903 673 b 468 1050 896 1006 786 1050 b 35 673 152 1050 42 1006 l 35 368 b 470 -8 42 34 152 -8 "},"”":{"x_min":69.421875,"x_max":419.21875,"ha":499,"o":"m 136 900 l 136 873 b 69 806 136 822 118 808 l 69 744 l 100 744 b 205 873 191 744 205 800 l 205 1041 l 84 1041 l 84 900 l 136 900 m 349 900 l 349 873 b 283 806 349 822 332 808 l 283 744 l 314 744 b 419 873 405 744 419 800 l 419 1041 l 298 1041 l 298 900 l 349 900 "},"¾":{"x_min":60.828125,"x_max":1348.390625,"ha":1438,"o":"m 1258 624 l 1133 624 l 803 225 l 803 125 l 1170 125 l 1170 0 l 1258 0 l 1258 125 l 1348 125 l 1348 208 l 1258 208 l 1258 624 m 1170 208 l 872 208 l 1166 564 l 1170 564 l 1170 208 m 1156 1040 l 1061 1040 l 372 0 l 463 0 l 1156 1040 m 252 704 l 331 704 b 465 603 418 704 465 706 b 296 489 465 492 443 487 b 149 586 167 492 149 496 l 149 621 l 60 621 l 60 579 b 296 412 58 433 143 412 b 553 594 455 412 553 407 b 431 737 553 686 531 731 l 431 740 b 539 886 529 746 539 806 b 303 1049 539 1049 444 1047 b 69 878 149 1049 69 1037 l 69 851 l 157 851 l 157 878 b 293 972 161 961 179 972 b 451 874 436 972 451 962 b 331 781 451 778 418 782 l 252 781 l 252 704 "},"@":{"x_min":136.0625,"x_max":1211.390625,"ha":1375,"o":"m 876 763 l 852 684 l 849 684 b 696 791 833 748 760 795 b 402 463 532 783 412 623 b 598 233 398 345 473 227 b 760 320 671 233 714 273 b 894 230 770 250 834 230 b 1211 634 1095 230 1211 448 b 692 1050 1211 901 929 1050 b 136 488 402 1050 145 790 b 673 -8 132 186 393 -12 b 933 43 763 -6 852 12 l 899 123 b 671 81 838 104 758 83 b 238 477 446 81 247 243 b 694 959 232 726 451 958 b 1116 625 888 961 1116 831 b 925 313 1116 497 1053 313 b 852 375 865 313 839 334 l 973 763 l 876 763 m 808 618 b 627 311 816 523 747 311 b 504 459 552 311 503 391 b 703 708 510 568 583 708 b 808 618 758 708 803 676 "},"ö":{"x_min":70.78125,"x_max":705.0625,"ha":792,"o":"m 70 363 b 387 -8 70 56 122 -8 b 705 363 653 -8 705 56 b 387 737 705 672 653 737 b 70 363 122 737 70 672 m 182 363 b 387 648 182 618 196 648 b 593 363 579 648 593 618 b 387 80 593 111 579 80 b 182 363 196 80 182 111 m 311 906 l 191 906 l 191 804 l 311 804 l 311 906 m 583 906 l 464 906 l 464 804 l 583 804 l 583 906 "},"i":{"x_min":92.5625,"x_max":200.078125,"ha":299,"o":"m 200 729 l 92 729 l 92 0 l 200 0 l 200 729 m 200 1041 l 92 1041 l 92 920 l 200 920 l 200 1041 "},"≤":{"x_min":83.03125,"x_max":846.609375,"ha":951,"o":"m 842 123 l 842 204 l 170 516 l 170 519 l 842 827 l 842 909 l 93 552 l 93 480 l 842 123 m 846 -9 l 846 58 l 83 58 l 83 -9 l 846 -9 "},"Õ":{"x_min":55.8125,"x_max":857.5,"ha":932,"o":"m 387 1049 b 55 699 133 1046 55 960 l 55 328 b 387 -8 55 82 142 -8 l 525 -8 b 857 328 770 -8 857 82 l 857 699 b 525 1049 857 960 779 1046 l 387 1049 m 525 945 b 741 699 696 945 741 902 l 741 328 b 525 95 741 121 675 96 l 387 95 b 171 328 238 96 171 121 l 171 699 b 387 945 171 902 216 945 l 525 945 m 628 1269 b 549 1207 612 1239 585 1207 b 455 1238 524 1207 490 1223 b 356 1267 421 1252 386 1267 b 225 1164 291 1267 253 1219 l 287 1128 b 355 1185 304 1159 315 1185 b 447 1156 382 1185 415 1170 b 547 1126 481 1141 515 1126 b 687 1230 611 1126 657 1177 l 628 1269 "},"þ":{"x_min":89.828125,"x_max":709.140625,"ha":796,"o":"m 400 648 b 597 363 582 648 597 581 b 400 80 597 127 566 80 b 197 363 208 80 197 191 b 400 648 197 556 197 648 m 197 86 l 200 86 b 430 -8 240 1 348 -8 b 709 363 639 -8 709 75 b 430 737 709 581 690 737 b 200 637 340 737 243 720 l 197 640 l 197 1041 l 89 1041 l 89 -315 l 197 -315 l 197 86 "},"]":{"x_min":84.390625,"x_max":348.4375,"ha":432,"o":"m 348 -208 l 348 1050 l 84 1050 l 84 945 l 232 945 l 232 -104 l 84 -104 l 84 -208 l 348 -208 "},"m":{"x_min":89.828125,"x_max":1161.03125,"ha":1276,"o":"m 197 729 l 89 729 l 89 0 l 197 0 l 197 438 b 412 648 197 587 270 648 b 571 488 567 648 567 586 l 571 0 l 679 0 l 679 447 b 896 648 679 604 744 648 b 1053 469 1035 648 1053 593 l 1053 0 l 1161 0 l 1161 480 b 913 737 1161 661 1097 737 b 658 616 816 737 706 713 b 438 737 634 712 524 737 b 200 616 347 737 238 711 l 197 616 l 197 729 "},"8":{"x_min":88.46875,"x_max":850.703125,"ha":958,"o":"m 265 540 b 88 287 102 513 88 437 b 469 -8 88 -11 225 -8 b 850 287 766 -8 850 22 b 676 540 850 455 815 518 l 676 541 b 838 780 824 568 838 647 b 469 1050 838 1041 713 1050 b 102 780 217 1050 102 1038 b 265 543 102 626 126 568 l 265 540 m 217 780 b 469 945 217 929 235 945 b 722 780 705 945 722 923 b 469 588 722 616 702 588 b 217 780 234 588 217 622 m 204 287 b 469 484 204 470 242 484 b 735 287 705 484 735 461 b 469 95 735 127 696 91 b 204 287 217 100 204 119 "},"ž":{"x_min":33.796875,"x_max":585.015625,"ha":631,"o":"m 585 729 l 69 729 l 69 640 l 459 640 l 33 101 l 33 0 l 585 0 l 585 88 l 159 88 l 585 627 l 585 729 m 306 813 l 546 962 l 518 1022 l 306 916 l 104 1022 l 71 962 l 306 813 "},"R":{"x_min":93.921875,"x_max":882,"ha":974,"o":"m 209 416 l 581 416 b 752 220 721 416 752 352 l 752 0 l 868 0 l 868 276 b 703 463 868 388 818 455 l 703 466 b 882 741 865 487 882 595 b 564 1041 882 979 785 1041 l 93 1041 l 93 0 l 209 0 l 209 416 m 209 520 l 209 937 l 566 937 b 766 754 748 937 766 887 b 566 520 766 581 744 526 l 209 520 "},"á":{"x_min":66.6875,"x_max":684.65625,"ha":792,"o":"m 357 81 b 178 226 234 81 178 87 b 357 353 178 344 230 353 b 574 217 494 353 574 354 b 357 81 574 83 465 81 m 684 0 l 684 497 b 374 737 686 719 553 739 b 88 539 215 739 88 726 l 88 524 l 200 524 l 200 549 b 386 649 198 649 302 649 b 577 503 507 649 577 636 l 577 368 l 570 368 b 345 442 555 435 416 442 b 66 212 168 442 66 414 b 338 -7 66 22 178 -7 b 574 78 428 -7 533 -5 l 577 75 l 577 0 l 684 0 m 462 1032 l 259 875 l 296 818 l 515 957 l 462 1032 "},"×":{"x_min":68,"x_max":727,"ha":811,"o":"m 68 605 l 330 337 l 68 69 l 134 0 l 397 269 l 660 0 l 727 69 l 464 337 l 727 605 l 660 675 l 397 405 l 134 675 l 68 605 "},"o":{"x_min":70.78125,"x_max":705.0625,"ha":792,"o":"m 70 363 b 387 -8 70 56 122 -8 b 705 363 653 -8 705 56 b 387 737 705 672 653 737 b 70 363 122 737 70 672 m 182 363 b 387 648 182 618 196 648 b 593 363 579 648 593 618 b 387 80 593 111 579 80 b 182 363 196 80 182 111 "},"5":{"x_min":92.5625,"x_max":846.609375,"ha":958,"o":"m 225 938 l 804 938 l 804 1042 l 110 1042 l 110 514 l 225 514 b 470 608 245 625 387 608 b 730 361 690 608 730 585 b 470 96 730 133 710 96 b 209 264 288 96 209 102 l 209 299 l 92 299 l 93 274 b 470 -7 107 21 196 -7 b 846 361 779 -7 846 35 b 503 713 846 561 822 713 b 228 627 416 713 277 710 l 225 627 l 225 938 "},"õ":{"x_min":71.3125,"x_max":705.59375,"ha":792,"o":"m 71 364 b 388 -8 71 57 123 -8 b 705 364 653 -8 705 57 b 388 737 705 672 653 737 b 71 364 123 737 71 672 m 182 364 b 388 648 182 618 196 648 b 593 364 580 648 593 618 b 388 80 593 111 580 80 b 182 364 196 80 182 111 m 561 957 b 482 895 544 927 517 895 b 388 926 456 895 422 911 b 289 955 354 940 319 955 b 158 852 223 955 185 907 l 219 816 b 287 873 237 847 248 873 b 380 844 314 873 347 858 b 479 814 414 829 448 814 b 619 918 543 814 589 865 l 561 957 "},"7":{"x_min":85.75,"x_max":830.28125,"ha":958,"o":"m 830 1041 l 85 1041 l 85 944 l 735 944 l 198 0 l 334 0 l 830 893 l 830 1041 "},"K":{"x_min":98,"x_max":937.8125,"ha":942,"o":"m 213 1041 l 98 1041 l 98 0 l 213 0 l 213 481 l 314 481 l 781 0 l 937 0 l 415 537 l 882 1041 l 730 1041 l 314 586 l 213 586 l 213 1041 "},",":{"x_min":149.71875,"x_max":285.828125,"ha":479,"o":"m 216 0 l 216 -26 b 149 -93 216 -77 198 -91 l 149 -155 l 181 -155 b 285 -26 272 -155 285 -100 l 285 141 l 164 141 l 164 0 l 216 0 "},"d":{"x_min":66.6875,"x_max":687.359375,"ha":797,"o":"m 381 80 b 178 363 227 80 178 111 b 381 648 178 619 216 648 b 579 363 556 648 579 563 b 381 80 579 138 548 80 m 579 0 l 687 0 l 687 1041 l 579 1041 l 579 638 l 577 638 b 347 737 545 727 426 737 b 66 363 91 737 66 583 b 347 -8 66 141 92 -8 b 577 94 443 -8 534 6 l 579 91 l 579 0 "},"¨":{"x_min":102.078125,"x_max":494.078125,"ha":608,"o":"m 221 906 l 102 906 l 102 804 l 221 804 l 221 906 m 494 906 l 374 906 l 374 804 l 494 804 l 494 906 "},"Ô":{"x_min":55.8125,"x_max":857.5,"ha":932,"o":"m 387 1050 b 55 700 133 1047 55 961 l 55 329 b 387 -8 55 83 142 -8 l 525 -8 b 857 329 770 -8 857 83 l 857 700 b 525 1050 857 961 779 1047 l 387 1050 m 525 945 b 741 700 696 945 741 902 l 741 329 b 525 95 741 122 675 97 l 387 95 b 171 329 238 97 171 122 l 171 700 b 387 945 171 902 216 945 l 525 945 m 458 1334 l 219 1184 l 247 1126 l 458 1231 l 661 1126 l 694 1184 l 458 1334 "},"E":{"x_min":55.8125,"x_max":711.859375,"ha":778,"o":"m 171 937 l 711 937 l 711 1041 l 55 1041 l 55 0 l 711 0 l 711 104 l 171 104 l 171 486 l 688 486 l 688 583 l 171 583 l 171 937 "},"Y":{"x_min":-8.171875,"x_max":868.390625,"ha":878,"o":"m 868 1041 l 730 1041 l 428 554 l 126 1041 l -8 1041 l 366 434 l 366 0 l 481 0 l 481 434 l 868 1041 "},"\"":{"x_min":69.421875,"x_max":413.78125,"ha":493,"o":"m 69 1041 l 69 887 l 106 700 l 160 700 l 197 887 l 197 1041 l 69 1041 m 285 1041 l 285 887 l 322 700 l 377 700 l 413 887 l 413 1041 l 285 1041 "},"‹":{"x_min":76,"x_max":356,"ha":442,"o":"m 259 798 l 76 401 l 281 0 l 356 50 l 177 401 l 338 750 l 259 798 "},"˙":{"x_min":102.078125,"x_max":221.859375,"ha":331,"o":"m 221 906 l 102 906 l 102 804 l 221 804 l 221 906 "},"ê":{"x_min":71.265625,"x_max":697.375,"ha":785,"o":"m 587 220 l 587 193 b 392 80 587 90 539 80 b 182 340 199 80 182 109 l 697 340 l 697 413 b 392 737 697 683 623 737 b 71 363 136 737 71 666 b 392 -8 71 86 113 -8 b 697 194 551 -8 697 1 l 697 220 l 587 220 m 182 429 b 392 648 191 597 197 648 b 585 429 555 648 580 636 l 182 429 m 387 1022 l 147 872 l 176 813 l 387 919 l 589 813 l 622 872 l 387 1022 "},"Ï":{"x_min":-40.828125,"x_max":351.171875,"ha":317,"o":"m 213 1041 l 98 1041 l 98 0 l 213 0 l 213 1041 m 78 1219 l -40 1219 l -40 1116 l 78 1116 l 78 1219 m 351 1219 l 231 1219 l 231 1116 l 351 1116 l 351 1219 "},"„":{"x_min":69.421875,"x_max":419.21875,"ha":499,"o":"m 136 0 l 136 -26 b 69 -93 136 -77 118 -91 l 69 -155 l 100 -155 b 205 -26 191 -155 205 -100 l 205 141 l 84 141 l 84 0 l 136 0 m 349 0 l 349 -26 b 283 -93 349 -77 332 -91 l 283 -155 l 314 -155 b 419 -26 405 -155 419 -100 l 419 141 l 298 141 l 298 0 l 349 0 "},"Â":{"x_min":8,"x_max":924,"ha":951,"o":"m 723 220 l 804 0 l 924 0 l 542 1041 l 379 1041 l 8 0 l 129 0 l 208 220 l 723 220 m 691 318 l 239 318 l 463 944 l 691 318 m 468 1334 l 228 1184 l 257 1126 l 468 1231 l 670 1126 l 703 1184 l 468 1334 "},"Í":{"x_min":27.21875,"x_max":283.109375,"ha":317,"o":"m 213 1041 l 98 1041 l 98 0 l 213 0 l 213 1041 m 230 1344 l 27 1187 l 63 1130 l 283 1269 l 230 1344 "},"´":{"x_min":102,"x_max":357.890625,"ha":469,"o":"m 304 1032 l 102 874 l 138 818 l 357 956 l 304 1032 "},"ì":{"x_min":19.0625,"x_max":274.9375,"ha":299,"o":"m 200 729 l 92 729 l 92 0 l 200 0 l 200 729 m 73 1031 l 19 956 l 239 818 l 274 875 l 73 1031 "},"±":{"x_min":68.0625,"x_max":726.828125,"ha":811,"o":"m 347 729 l 347 518 l 68 518 l 68 413 l 347 413 l 347 202 l 449 202 l 449 413 l 726 413 l 726 518 l 449 518 l 449 729 l 347 729 m 68 13 l 726 13 l 726 118 l 68 118 l 68 13 "},"Ú":{"x_min":98,"x_max":906.5,"ha":1024,"o":"m 790 1041 l 790 291 b 502 95 790 97 707 95 b 213 291 253 95 213 122 l 213 1041 l 98 1041 l 98 291 b 502 -8 98 -2 279 -8 b 906 291 743 -8 906 12 l 906 1041 l 790 1041 m 577 1344 l 374 1187 l 411 1130 l 630 1269 l 577 1344 "},"|":{"x_min":126.578125,"x_max":228.671875,"ha":361,"o":"m 228 1041 l 126 1041 l 126 -347 l 228 -347 l 228 1041 "},"§":{"x_min":114.328125,"x_max":824.828125,"ha":958,"o":"m 344 287 b 216 422 259 311 216 318 b 396 547 216 568 268 590 l 585 490 b 720 372 650 471 720 458 b 543 230 720 226 677 190 l 344 287 m 566 118 b 722 -36 677 88 722 84 b 476 -205 722 -218 626 -205 b 221 -12 223 -205 224 -164 l 119 -12 b 476 -303 119 -286 223 -303 b 824 -30 695 -303 824 -297 b 722 175 824 58 815 141 l 722 178 b 822 382 808 203 822 303 b 608 592 822 543 737 553 l 409 648 b 258 814 276 687 258 690 b 476 952 258 961 325 952 b 699 773 679 952 699 933 l 801 773 b 476 1050 798 1014 748 1050 b 156 789 250 1050 156 1039 b 231 608 156 718 164 643 l 231 605 b 114 417 130 587 114 510 b 283 194 114 265 148 232 l 566 118 "},"Ý":{"x_min":-8.171875,"x_max":868.390625,"ha":878,"o":"m 868 1041 l 730 1041 l 428 554 l 126 1041 l -8 1041 l 366 434 l 366 0 l 481 0 l 481 434 l 868 1041 m 529 1344 l 326 1187 l 363 1130 l 582 1269 l 529 1344 "},"b":{"x_min":92.5625,"x_max":711.859375,"ha":797,"o":"m 600 363 b 402 80 600 163 593 80 b 202 363 245 80 202 127 b 402 648 202 572 215 648 b 600 363 574 648 600 602 m 92 0 l 200 0 l 200 86 l 202 88 b 432 -8 242 9 336 -8 b 711 363 680 -8 711 126 b 432 737 711 591 679 737 b 202 634 349 737 236 727 l 200 634 l 200 1041 l 92 1041 l 92 0 "},"q":{"x_min":70.78125,"x_max":691.453125,"ha":799,"o":"m 386 80 b 182 363 186 80 182 159 b 370 648 182 616 225 648 b 581 363 574 648 581 568 b 386 80 581 175 568 80 m 691 729 l 583 729 l 583 641 l 581 638 b 371 737 541 716 455 737 b 70 363 100 737 70 602 b 371 -8 70 50 155 -8 b 581 83 439 -8 545 0 l 583 83 l 583 -315 l 691 -315 l 691 729 "},"Ω":{"x_min":85.75,"x_max":1141.96875,"ha":1254,"o":"m 343 83 l 85 83 l 85 0 l 487 0 l 487 62 b 216 525 351 131 216 298 b 619 952 216 756 375 952 b 1012 530 873 952 1012 726 b 741 62 1012 287 876 133 l 741 0 l 1141 0 l 1141 83 l 882 83 l 882 87 b 1118 544 999 165 1118 325 b 617 1036 1118 798 920 1036 b 108 540 333 1036 108 826 b 343 87 108 329 221 173 l 343 83 "},"Ö":{"x_min":55.8125,"x_max":857.5,"ha":932,"o":"m 387 1050 b 55 700 133 1047 55 961 l 55 329 b 387 -8 55 83 142 -8 l 525 -8 b 857 329 770 -8 857 83 l 857 700 b 525 1050 857 961 779 1047 l 387 1050 m 525 945 b 741 700 696 945 741 902 l 741 329 b 525 95 741 122 675 97 l 387 95 b 171 329 238 97 171 122 l 171 700 b 387 945 171 902 216 945 l 525 945 m 381 1219 l 261 1219 l 261 1116 l 381 1116 l 381 1219 m 653 1219 l 533 1219 l 533 1116 l 653 1116 l 653 1219 "},"ﬂ":{"x_min":10.890625,"x_max":605.703125,"ha":713,"o":"m 227 729 l 227 827 b 349 961 227 925 242 961 b 416 958 371 961 394 959 l 416 1047 b 349 1050 394 1048 371 1050 b 119 816 174 1050 119 994 l 119 729 l 10 729 l 10 640 l 119 640 l 119 0 l 227 0 l 227 640 l 416 640 l 416 729 l 227 729 m 605 1041 l 498 1041 l 498 0 l 605 0 l 605 1041 "},"z":{"x_min":33.796875,"x_max":585.046875,"ha":631,"o":"m 585 729 l 69 729 l 69 640 l 459 640 l 33 101 l 33 0 l 585 0 l 585 88 l 159 88 l 585 627 l 585 729 "},"™":{"x_min":85.75,"x_max":1282.171875,"ha":1389,"o":"m 1282 1041 l 1132 1041 l 962 629 l 797 1041 l 646 1041 l 646 456 l 741 456 l 741 958 l 744 958 l 935 456 l 988 456 l 1184 958 l 1186 958 l 1186 456 l 1282 456 l 1282 1041 m 549 1041 l 85 1041 l 85 958 l 266 958 l 266 456 l 368 456 l 368 958 l 549 958 l 549 1041 "},"ã":{"x_min":67.328125,"x_max":685.28125,"ha":792,"o":"m 358 81 b 178 226 234 81 178 87 b 358 353 178 344 230 353 b 575 217 494 353 575 354 b 358 81 575 83 466 81 m 685 0 l 685 497 b 374 737 686 719 554 739 b 89 539 215 739 89 726 l 89 523 l 200 523 l 200 548 b 387 648 199 648 302 648 b 577 503 508 648 577 636 l 577 368 l 570 368 b 346 441 555 435 417 441 b 67 212 169 441 67 414 b 339 -7 67 22 178 -7 b 575 78 429 -7 534 -5 l 577 75 l 577 0 l 685 0 m 561 957 b 482 895 545 927 517 895 b 388 926 456 895 422 911 b 289 955 354 940 319 955 b 158 852 223 955 185 907 l 219 816 b 287 873 237 847 248 873 b 380 844 315 873 347 858 b 479 814 414 829 448 814 b 619 918 543 814 589 865 l 561 957 "},"æ":{"x_min":66.6875,"x_max":1203.21875,"ha":1294,"o":"m 688 429 b 898 648 696 597 703 648 b 1091 429 1061 648 1086 636 l 688 429 m 357 352 b 574 216 494 352 574 354 b 357 80 574 83 465 80 b 178 226 234 80 178 87 b 357 352 178 344 230 352 m 577 368 l 570 368 b 345 441 555 434 416 441 b 66 212 168 441 66 413 b 338 -8 66 22 178 -8 b 624 112 461 -8 590 4 l 627 112 b 898 -8 662 -2 789 -8 b 1203 194 1057 -8 1203 1 l 1203 220 l 1092 220 l 1092 193 b 898 80 1092 90 1045 80 b 688 340 705 80 688 109 l 1203 340 l 1203 413 b 898 737 1203 683 1129 737 b 637 645 811 737 680 731 b 374 737 611 743 438 737 b 88 538 215 738 88 726 l 88 523 l 200 523 l 200 548 b 386 648 198 648 302 648 b 577 502 507 648 577 636 l 577 368 "},"®":{"x_min":10.890625,"x_max":1050.78125,"ha":1083,"o":"m 532 1050 b 10 520 243 1050 10 812 b 532 -8 10 226 243 -8 b 1050 520 819 -8 1050 226 b 532 1050 1050 812 819 1050 m 532 966 b 966 523 773 966 966 766 b 532 75 966 275 773 75 b 95 523 289 75 95 275 b 532 966 95 766 289 966 m 617 491 b 798 659 721 494 798 543 b 592 816 798 787 696 816 l 338 816 l 338 223 l 420 223 l 420 483 l 533 483 l 699 223 l 790 223 l 617 491 m 420 745 l 575 745 b 717 661 637 745 717 738 b 573 554 717 602 690 554 l 420 554 l 420 745 "},"É":{"x_min":55.8125,"x_max":711.859375,"ha":778,"o":"m 171 937 l 711 937 l 711 1041 l 55 1041 l 55 0 l 711 0 l 711 104 l 171 104 l 171 486 l 688 486 l 688 583 l 171 583 l 171 937 m 455 1344 l 253 1187 l 289 1130 l 509 1269 l 455 1344 "},"~":{"x_min":67.75,"x_max":727.984375,"ha":811,"o":"m 163 298 b 228 427 157 365 191 427 b 282 405 244 427 265 420 l 446 300 b 569 261 491 272 532 259 b 727 484 675 261 735 390 l 632 484 b 572 366 637 430 623 366 b 507 384 552 365 529 372 l 308 506 b 217 526 295 515 259 529 b 67 298 104 515 71 398 l 163 298 "},"³":{"x_min":51.65625,"x_max":544.4375,"ha":575,"o":"m 243 704 l 322 704 b 455 603 409 704 455 706 b 287 489 455 492 434 487 b 140 586 157 492 140 496 l 140 621 l 51 621 l 51 579 b 287 412 49 433 134 412 b 544 594 446 412 544 412 b 421 737 544 686 522 731 l 421 740 b 530 886 519 746 530 806 b 294 1049 530 1049 435 1047 b 59 878 140 1049 59 1037 l 59 851 l 148 851 l 148 878 b 284 972 152 961 170 972 b 442 874 427 972 442 962 b 322 781 442 778 409 782 l 243 781 l 243 704 "},"¡":{"x_min":119.78125,"x_max":240.921875,"ha":375,"o":"m 240 727 l 119 727 l 119 586 l 240 586 l 240 727 m 119 -313 l 240 -313 l 230 440 l 130 440 l 119 -313 "},"[":{"x_min":74.859375,"x_max":338.921875,"ha":432,"o":"m 74 1050 l 74 -208 l 338 -208 l 338 -104 l 190 -104 l 190 945 l 338 945 l 338 1050 l 74 1050 "},"L":{"x_min":102.078125,"x_max":737.71875,"ha":775,"o":"m 217 1041 l 102 1041 l 102 0 l 737 0 l 737 104 l 217 104 l 217 1041 "}," ":{"x_min":0,"x_max":0,"ha":479},"∑":{"x_min":35.203125,"x_max":881.875,"ha":938,"o":"m 881 -140 l 881 -45 l 180 -45 l 180 -40 l 613 447 l 209 922 l 209 927 l 858 927 l 858 1018 l 56 1018 l 56 947 l 489 436 l 35 -75 l 35 -140 l 881 -140 "},"%":{"x_min":29.9375,"x_max":1173.28125,"ha":1228,"o":"m 1091 183 b 947 68 1091 68 1060 68 b 812 183 835 68 812 68 l 812 336 b 947 444 812 443 835 444 b 1091 336 1067 444 1091 443 l 1091 183 m 1173 333 b 947 520 1170 500 1106 520 b 730 331 789 520 735 498 l 730 179 b 948 -8 735 12 789 -8 b 1173 180 1106 -8 1170 13 l 1173 333 m 994 1041 l 899 1041 l 210 -8 l 302 -8 l 994 1041 m 472 862 b 246 1050 469 1029 405 1050 b 29 861 88 1050 34 1027 l 29 708 b 247 520 34 541 88 520 b 472 709 405 520 469 543 l 472 862 m 390 712 b 246 597 390 597 359 597 b 111 712 134 597 111 597 l 111 865 b 246 973 111 972 134 973 b 390 865 366 973 390 972 l 390 712 "},"P":{"x_min":80.3125,"x_max":843.890625,"ha":918,"o":"m 80 0 l 196 0 l 196 405 l 594 405 b 843 726 842 405 843 633 b 600 1041 843 905 797 1041 l 80 1041 l 80 0 m 549 937 b 728 711 692 937 728 911 b 495 509 728 508 649 509 l 196 509 l 196 937 l 549 937 "},"∏":{"x_min":39.46875,"x_max":1116.109375,"ha":1181,"o":"m 1116 926 l 1116 1018 l 39 1018 l 39 926 l 230 926 l 230 -140 l 333 -140 l 333 926 l 823 926 l 823 -140 l 925 -140 l 925 926 l 1116 926 "},"À":{"x_min":8,"x_max":924,"ha":951,"o":"m 723 220 l 804 0 l 924 0 l 542 1041 l 379 1041 l 8 0 l 129 0 l 208 220 l 723 220 m 691 318 l 239 318 l 463 944 l 691 318 m 393 1344 l 338 1269 l 559 1130 l 594 1187 l 393 1344 "},"_":{"x_min":0,"x_max":680.5625,"ha":694,"o":"m 680 -104 l 0 -104 l 0 -173 l 680 -173 l 680 -104 "},"ñ":{"x_min":94.3125,"x_max":694.625,"ha":806,"o":"m 201 729 l 94 729 l 94 0 l 201 0 l 201 425 b 415 648 201 593 239 648 b 587 493 536 648 587 626 l 587 0 l 694 0 l 694 484 b 425 737 697 687 608 737 b 204 640 343 737 238 727 l 201 640 l 201 729 m 567 957 b 489 895 551 927 524 895 b 395 926 463 895 429 911 b 295 955 361 940 325 955 b 165 852 230 955 192 907 l 226 816 b 294 873 244 847 254 873 b 386 844 321 873 354 858 b 486 814 420 829 455 814 b 626 918 550 814 596 865 l 567 957 "},"+":{"x_min":68.0625,"x_max":726.828125,"ha":811,"o":"m 347 729 l 347 445 l 68 445 l 68 341 l 347 341 l 347 56 l 449 56 l 449 341 l 726 341 l 726 445 l 449 445 l 449 729 l 347 729 "},"‚":{"x_min":87.109375,"x_max":223.21875,"ha":317,"o":"m 153 0 l 153 -26 b 87 -93 153 -77 136 -91 l 87 -155 l 118 -155 b 223 -26 209 -155 223 -100 l 223 141 l 102 141 l 102 0 l 153 0 "},"½":{"x_min":63.5625,"x_max":1344.375,"ha":1438,"o":"m 1066 1041 l 971 1041 l 282 0 l 373 0 l 1066 1041 m 245 1041 l 63 854 l 109 797 l 279 975 l 279 416 l 368 416 l 368 1041 l 245 1041 m 953 83 l 953 115 b 1115 218 953 197 987 208 b 1344 431 1281 230 1344 263 b 1112 630 1344 590 1289 630 b 865 443 882 630 865 580 l 865 411 l 953 411 l 953 443 b 1112 547 951 537 967 547 b 1255 431 1225 547 1255 540 b 1098 301 1255 309 1224 315 b 865 105 938 286 865 272 l 865 0 l 1343 0 l 1343 83 l 953 83 "},"Æ":{"x_min":-10.890625,"x_max":1370.640625,"ha":1450,"o":"m 835 937 l 1370 937 l 1370 1041 l 552 1041 l -10 0 l 125 0 l 243 215 l 720 215 l 720 0 l 1370 0 l 1370 104 l 835 104 l 835 486 l 1346 486 l 1346 583 l 835 583 l 835 937 m 720 319 l 296 319 l 622 937 l 720 937 l 720 319 "},"Ë":{"x_min":55.8125,"x_max":711.859375,"ha":778,"o":"m 171 937 l 711 937 l 711 1041 l 55 1041 l 55 0 l 711 0 l 711 104 l 171 104 l 171 486 l 688 486 l 688 583 l 171 583 l 171 937 m 304 1219 l 185 1219 l 185 1116 l 304 1116 l 304 1219 m 577 1219 l 457 1219 l 457 1116 l 577 1116 l 577 1219 "},"'":{"x_min":66.6875,"x_max":194.640625,"ha":265,"o":"m 66 1041 l 66 887 l 103 700 l 157 700 l 194 887 l 194 1041 l 66 1041 "},"Š":{"x_min":44,"x_max":812.578125,"ha":874,"o":"m 423 480 b 696 300 609 465 696 498 b 419 95 696 95 637 95 b 161 325 202 95 159 95 l 46 325 b 419 -8 24 23 159 -8 b 812 295 676 -8 812 1 b 447 584 812 577 690 570 b 164 772 257 590 164 573 b 421 945 164 916 196 945 b 677 756 638 945 672 938 l 793 756 b 426 1050 805 1040 646 1050 b 49 747 174 1050 49 1025 b 423 480 49 472 221 497 m 424 1126 l 665 1275 l 637 1334 l 424 1229 l 223 1334 l 190 1275 l 424 1126 "},"ª":{"x_min":92.5625,"x_max":495.5,"ha":611,"o":"m 423 604 l 495 604 l 495 903 b 294 1050 498 1040 405 1050 b 108 915 197 1050 108 1046 l 190 915 b 303 983 185 978 219 983 b 413 842 413 983 413 944 b 269 876 382 876 314 876 b 92 732 161 876 92 853 b 270 596 92 615 171 596 b 420 640 322 596 385 596 l 423 637 l 423 604 m 283 662 b 178 740 212 662 178 665 b 296 810 178 805 210 810 b 413 735 368 810 413 805 b 283 662 413 664 349 662 "},"Œ":{"x_min":57.171875,"x_max":1459.109375,"ha":1540,"o":"m 480 945 b 804 655 744 945 804 934 l 804 376 b 480 95 804 105 733 95 b 171 376 245 95 170 101 l 172 655 b 480 945 174 933 230 945 m 920 937 l 1459 937 l 1459 1041 l 804 1041 l 804 930 l 801 930 b 480 1050 778 1041 578 1050 b 57 655 149 1050 57 963 l 57 376 b 480 -8 57 27 175 -8 b 801 108 604 -8 743 -6 l 804 108 l 804 0 l 1459 0 l 1459 104 l 920 104 l 920 486 l 1435 486 l 1435 583 l 920 583 l 920 937 "},"˛":{"x_min":102.078125,"x_max":315.78125,"ha":426,"o":"m 205 0 b 102 -147 149 -30 102 -77 b 246 -268 102 -229 174 -268 b 315 -255 269 -268 294 -263 l 315 -187 b 262 -198 299 -195 280 -198 b 172 -125 216 -198 172 -177 b 283 0 172 -72 243 -23 l 205 0 "},"ð":{"x_min":70.65625,"x_max":704.9375,"ha":792,"o":"m 182 364 b 387 649 182 618 195 649 b 593 364 579 649 593 618 b 387 81 593 111 579 81 b 182 364 195 81 182 111 m 253 1017 b 386 914 299 987 344 949 l 225 861 l 285 810 l 438 858 b 548 694 485 806 526 747 b 387 737 506 725 478 737 b 70 364 122 737 70 672 b 387 -7 70 57 122 -7 b 704 442 661 -7 704 36 b 540 890 704 624 645 772 l 689 937 l 626 994 l 484 947 b 351 1050 444 986 400 1019 l 253 1017 "},"T":{"x_min":5.4375,"x_max":782.640625,"ha":804,"o":"m 451 937 l 782 937 l 782 1041 l 5 1041 l 5 937 l 336 937 l 336 0 l 451 0 l 451 937 "},"š":{"x_min":62.640625,"x_max":677.859375,"ha":746,"o":"m 658 566 b 379 737 658 732 505 737 b 68 522 186 737 68 733 b 379 320 68 315 224 332 b 566 201 510 312 566 337 b 379 89 566 72 453 89 b 174 173 216 89 174 104 l 174 230 l 62 230 l 62 162 b 379 -8 62 0 224 -8 b 677 205 539 -8 677 0 b 326 425 677 443 510 414 b 179 551 215 430 179 420 b 379 640 179 641 245 640 b 547 566 492 640 547 640 l 547 539 l 658 539 l 658 566 m 362 814 l 603 962 l 574 1022 l 362 916 l 160 1022 l 127 962 l 362 814 "},"℮":{"x_min":49.484375,"x_max":1200.984375,"ha":1276,"o":"m 1200 505 l 1200 520 b 623 1050 1200 812 943 1050 b 49 520 306 1050 49 812 b 623 -6 49 229 306 -6 b 1079 197 810 -6 977 73 l 996 197 b 625 22 906 91 774 22 b 272 179 487 22 363 83 b 260 211 265 188 260 198 l 260 500 b 268 505 260 504 263 505 l 1200 505 m 990 543 b 983 534 990 540 987 534 l 268 534 b 260 543 263 534 260 540 l 260 826 b 274 862 260 841 265 854 b 625 1018 365 956 489 1018 b 975 868 762 1018 885 958 b 990 833 984 858 990 845 l 990 543 "},"Þ":{"x_min":80.3125,"x_max":843.890625,"ha":918,"o":"m 80 0 l 196 0 l 196 202 l 594 202 b 843 523 842 202 843 430 b 600 838 843 702 797 838 l 196 838 l 196 1041 l 80 1041 l 80 0 m 549 734 b 728 508 692 734 728 708 b 495 306 728 305 649 306 l 196 306 l 196 734 l 549 734 "},"j":{"x_min":-6.328125,"x_max":200.5625,"ha":290,"o":"m 200 729 l 93 729 l 93 -51 b 15 -200 93 -120 102 -200 b -6 -198 8 -200 0 -198 l -6 -283 b 46 -290 11 -287 29 -290 b 200 -87 180 -290 196 -200 l 200 729 m 200 1041 l 93 1041 l 93 920 l 200 920 l 200 1041 "},"1":{"x_min":160.609375,"x_max":609.78125,"ha":958,"o":"m 609 1041 l 442 1041 l 160 728 l 232 657 l 494 951 l 494 0 l 609 0 l 609 1041 "},"›":{"x_min":76,"x_max":356,"ha":442,"o":"m 93 750 l 254 401 l 76 50 l 150 0 l 356 401 l 172 798 l 93 750 "},"ı":{"x_min":92.5625,"x_max":200.078125,"ha":299,"o":"m 200 729 l 92 729 l 92 0 l 200 0 l 200 729 "},"ℓ":{"x_min":49,"x_max":756.78125,"ha":813,"o":"m 702 241 b 468 81 661 168 577 81 b 279 306 374 81 280 150 l 277 341 b 628 893 488 527 628 702 b 423 1134 628 1019 564 1134 b 178 777 307 1134 178 1052 l 178 373 b 49 272 138 338 93 308 l 83 209 b 179 283 115 233 149 261 l 179 266 b 447 -1 189 129 269 -1 b 756 195 574 -1 681 63 l 702 241 m 277 795 b 423 1058 277 994 360 1058 b 548 887 515 1058 548 983 b 277 441 548 736 428 590 l 277 795 "},"ä":{"x_min":66.6875,"x_max":684.65625,"ha":792,"o":"m 357 81 b 178 226 234 81 178 87 b 357 353 178 344 230 353 b 574 217 494 353 574 354 b 357 81 574 83 465 81 m 684 0 l 684 497 b 374 737 686 719 553 739 b 88 539 215 739 88 726 l 88 524 l 200 524 l 200 549 b 386 649 198 649 302 649 b 577 503 507 649 577 636 l 577 368 l 570 368 b 345 442 555 435 416 442 b 66 212 168 442 66 414 b 338 -7 66 22 178 -7 b 574 78 428 -7 533 -5 l 577 75 l 577 0 l 684 0 m 311 907 l 191 907 l 191 804 l 311 804 l 311 907 m 583 907 l 464 907 l 464 804 l 583 804 l 583 907 "},"<":{"x_min":68.0625,"x_max":726.828125,"ha":811,"o":"m 726 672 l 68 384 l 68 287 l 726 0 l 726 111 l 189 336 l 726 561 l 726 672 "},"£":{"x_min":70.859375,"x_max":888.890625,"ha":958,"o":"m 601 504 l 311 504 l 311 737 b 548 945 317 929 329 945 b 760 752 729 945 760 919 l 760 730 l 869 730 l 869 752 b 524 1050 869 997 797 1050 b 196 737 302 1050 196 1011 l 196 504 l 70 504 l 70 406 l 196 406 l 196 320 b 96 88 196 233 202 106 l 96 0 l 888 0 l 888 101 l 230 88 l 227 91 b 311 320 318 150 313 220 l 311 406 l 601 406 l 601 504 "},"¹":{"x_min":61.25,"x_max":366.140625,"ha":575,"o":"m 366 1049 l 243 1049 l 61 862 l 107 805 l 277 983 l 277 419 l 366 419 l 366 1049 "},"t":{"x_min":-8.171875,"x_max":498.171875,"ha":508,"o":"m 470 729 l 194 729 l 194 905 l 87 905 l 87 729 l -8 729 l -8 640 l 87 640 l 87 211 b 292 -8 87 40 125 -8 b 498 204 439 -8 498 59 l 498 258 l 396 258 l 396 204 b 295 80 396 134 396 80 b 194 177 216 80 196 98 l 194 640 l 470 640 l 470 729 "},"¬":{"x_min":68.0625,"x_max":726.828125,"ha":811,"o":"m 624 179 l 726 179 l 726 554 l 68 554 l 68 450 l 624 450 l 624 179 "},"ù":{"x_min":89.828125,"x_max":680.5625,"ha":792,"o":"m 571 0 l 680 0 l 680 729 l 573 729 l 573 279 b 344 80 573 105 495 80 b 197 261 205 80 197 143 l 197 729 l 89 729 l 89 261 b 345 -8 89 69 156 -8 b 568 97 439 -8 530 8 l 571 97 l 571 0 m 259 1031 l 205 956 l 426 818 l 461 875 l 259 1031 "},"W":{"x_min":3,"x_max":1526,"ha":1560,"o":"m 1526 1041 l 1406 1041 l 1121 90 l 1119 90 l 846 1041 l 676 1041 l 401 90 l 399 90 l 121 1041 l 3 1041 l 316 0 l 488 0 l 759 937 l 762 937 l 1029 0 l 1204 0 l 1526 1041 "},"ï":{"x_min":-49,"x_max":343,"ha":299,"o":"m 200 729 l 92 729 l 92 0 l 200 0 l 200 729 m 70 906 l -49 906 l -49 804 l 70 804 l 70 906 m 343 906 l 223 906 l 223 804 l 343 804 l 343 906 "},">":{"x_min":68.1875,"x_max":726.953125,"ha":811,"o":"m 726 384 l 68 672 l 68 561 l 600 336 l 68 111 l 68 0 l 726 287 l 726 384 "},"v":{"x_min":-5,"x_max":622,"ha":629,"o":"m 622 729 l 505 729 l 309 83 l 306 83 l 103 729 l -5 729 l 231 0 l 382 0 l 622 729 "},"û":{"x_min":90.265625,"x_max":680.984375,"ha":792,"o":"m 572 0 l 680 0 l 680 729 l 573 729 l 573 279 b 344 80 573 105 495 80 b 197 261 205 80 197 143 l 197 729 l 90 729 l 90 261 b 346 -8 90 69 156 -8 b 569 97 440 -8 531 8 l 572 97 l 572 0 m 391 1022 l 151 872 l 180 813 l 391 919 l 593 813 l 626 872 l 391 1022 "},"Ò":{"x_min":55.8125,"x_max":857.5,"ha":932,"o":"m 387 1050 b 55 700 133 1047 55 961 l 55 329 b 387 -8 55 83 142 -8 l 525 -8 b 857 329 770 -8 857 83 l 857 700 b 525 1050 857 961 779 1047 l 387 1050 m 525 945 b 741 700 696 945 741 902 l 741 329 b 525 95 741 122 675 97 l 387 95 b 171 329 238 97 171 122 l 171 700 b 387 945 171 902 216 945 l 525 945 m 356 1344 l 302 1269 l 522 1130 l 558 1187 l 356 1344 "},"&":{"x_min":87.546875,"x_max":1070.8125,"ha":1094,"o":"m 766 201 b 475 96 742 87 585 96 b 203 314 234 96 203 112 b 367 535 203 480 218 501 l 766 201 m 1008 1 l 1070 82 l 885 232 b 897 378 895 280 897 330 b 895 460 897 406 896 432 l 788 460 b 791 388 788 437 792 412 b 787 319 790 364 788 342 l 389 659 b 318 805 336 705 318 731 b 516 946 318 942 406 946 b 689 788 668 946 687 920 l 689 723 l 805 723 l 805 788 b 516 1051 805 1007 701 1051 b 203 805 316 1051 203 1010 b 295 599 203 688 229 656 b 87 316 165 562 87 569 b 475 -7 87 -8 249 -7 b 857 128 639 -7 798 -7 l 1008 1 "},"˝":{"x_min":102,"x_max":563.21875,"ha":679,"o":"m 286 1042 l 102 864 l 144 811 l 348 972 l 286 1042 m 501 1042 l 316 864 l 359 811 l 563 972 l 501 1042 "},"Ð":{"x_min":-44.921875,"x_max":941.890625,"ha":1019,"o":"m 95 584 l -44 584 l -44 487 l 95 487 l 95 0 l 619 0 b 941 391 925 0 941 288 l 941 640 b 592 1041 941 1025 715 1041 l 95 1041 l 95 584 m 210 937 l 611 937 b 826 686 805 937 826 744 l 826 412 b 592 104 823 226 796 104 l 210 104 l 210 487 l 492 487 l 492 584 l 210 584 l 210 937 "},"I":{"x_min":98,"x_max":213.6875,"ha":317,"o":"m 213 1041 l 98 1041 l 98 0 l 213 0 l 213 1041 "},"ˉ":{"x_min":107.53125,"x_max":483.1875,"ha":603,"o":"m 107 900 l 107 811 l 483 811 l 483 900 l 107 900 "},"G":{"x_min":59.890625,"x_max":902.421875,"ha":967,"o":"m 461 520 l 461 416 l 786 416 l 786 287 b 540 95 786 120 743 95 l 431 95 b 175 338 240 95 175 140 l 175 673 b 428 945 175 901 208 945 l 571 945 b 784 797 737 945 784 916 l 784 737 l 899 737 l 899 818 b 627 1050 899 986 781 1050 l 359 1050 b 59 687 185 1050 59 969 l 59 365 b 451 -8 59 43 179 -8 l 563 -8 b 902 294 794 -8 902 50 l 902 520 l 461 520 "},"`":{"x_min":102,"x_max":357.890625,"ha":469,"o":"m 156 1032 l 102 956 l 322 818 l 357 874 l 156 1032 "},"·":{"x_min":174.21875,"x_max":295.359375,"ha":479,"o":"m 295 465 l 174 465 l 174 323 l 295 323 l 295 465 "},"r":{"x_min":78.9375,"x_max":582.5625,"ha":614,"o":"m 78 729 l 78 0 l 186 0 l 186 454 b 360 648 183 583 227 648 b 480 527 450 648 480 618 l 480 479 l 582 479 l 582 531 b 383 737 582 668 521 737 b 181 636 303 737 217 716 l 178 638 l 183 729 l 78 729 "},"¿":{"x_min":77.578125,"x_max":718.671875,"ha":811,"o":"m 389 429 l 389 391 b 255 262 389 309 370 302 b 77 -45 91 204 77 122 b 390 -323 77 -272 167 -323 b 718 -45 611 -323 713 -300 l 718 13 l 609 13 l 609 -45 b 390 -219 609 -211 560 -219 b 186 -45 223 -219 186 -201 b 313 169 186 113 201 123 b 504 391 468 227 504 256 l 504 429 l 389 429 m 506 729 l 385 729 l 385 587 l 506 587 l 506 729 "},"ý":{"x_min":-5,"x_max":601,"ha":607,"o":"m 601 729 l 489 729 l 328 80 l 325 80 l 105 729 l -5 729 l 253 0 l 291 0 b 143 -236 267 -83 255 -236 b 105 -231 129 -236 117 -234 l 105 -316 b 154 -323 120 -319 136 -323 b 395 -51 325 -323 357 -188 l 601 729 m 398 1031 l 195 875 l 231 818 l 451 956 l 398 1031 "},"x":{"x_min":-5,"x_max":624,"ha":631,"o":"m 596 729 l 471 729 l 309 462 l 143 729 l 22 729 l 253 380 l -5 0 l 124 0 l 309 294 l 494 0 l 624 0 l 369 380 l 596 729 "},"è":{"x_min":70.78125,"x_max":696.890625,"ha":785,"o":"m 586 220 l 586 193 b 392 80 586 90 539 80 b 182 340 198 80 182 109 l 696 340 l 696 413 b 392 737 696 683 623 737 b 70 363 136 737 70 666 b 392 -8 70 86 112 -8 b 696 194 551 -8 696 1 l 696 220 l 586 220 m 182 429 b 392 648 190 597 197 648 b 585 429 555 648 579 636 l 182 429 m 284 1031 l 230 956 l 450 818 l 485 875 l 284 1031 "},"º":{"x_min":98,"x_max":500.890625,"ha":611,"o":"m 306 1050 b 98 826 118 1050 98 988 b 306 595 98 637 122 595 b 500 826 483 595 500 656 b 306 1050 500 1004 466 1050 m 306 983 b 419 826 415 983 419 955 b 306 662 419 690 413 662 b 179 826 186 662 179 663 b 306 983 179 966 189 983 "},"Ø":{"x_min":22.3125,"x_max":962.84375,"ha":1004,"o":"m 811 776 l 811 327 b 602 96 811 176 772 96 l 417 96 b 203 175 359 96 236 97 l 811 776 m 174 265 l 174 669 b 417 945 173 879 203 945 l 602 945 b 781 870 681 945 753 936 l 174 265 m 962 1043 l 862 950 b 602 1050 804 1025 711 1050 l 417 1050 b 59 669 196 1050 59 984 l 59 327 b 83 175 59 266 76 191 l 22 114 l 22 2 l 121 96 b 417 -7 192 0 308 -7 l 602 -7 b 927 328 815 -7 927 72 l 927 669 b 900 870 927 737 931 809 l 962 923 l 962 1043 "},"∞":{"x_min":83.03125,"x_max":1148.78125,"ha":1257,"o":"m 1148 422 b 921 666 1148 565 1060 665 b 623 470 790 666 709 566 b 328 666 539 569 447 666 b 83 416 187 666 83 559 b 315 170 83 279 190 170 b 617 365 446 170 533 269 b 910 170 729 240 808 170 b 1148 420 1033 170 1148 268 l 1148 422 m 326 238 b 155 413 221 238 155 318 b 315 601 153 512 215 601 b 579 413 432 601 509 501 b 328 238 514 345 431 238 l 326 238 m 914 601 b 1078 416 1007 601 1078 533 b 916 238 1078 330 1019 238 b 658 420 831 238 767 302 b 913 601 715 477 803 601 l 914 601 "},"μ":{"x_min":92.5625,"x_max":683.28125,"ha":792,"o":"m 574 0 l 683 0 l 683 729 l 575 729 l 575 279 b 347 80 575 107 498 80 b 200 261 208 80 200 143 l 200 729 l 92 729 l 92 -314 l 200 -314 l 200 19 b 348 -7 236 0 285 -7 b 571 97 442 -7 533 8 l 574 97 l 574 0 "},"÷":{"x_min":68.0625,"x_max":726.828125,"ha":811,"o":"m 726 445 l 68 445 l 68 341 l 726 341 l 726 445 m 468 58 l 468 202 l 326 202 l 326 58 l 468 58 m 468 584 l 468 729 l 326 729 l 326 584 l 468 584 "},"h":{"x_min":93.921875,"x_max":694.234375,"ha":806,"o":"m 201 1041 l 93 1041 l 93 0 l 201 0 l 201 425 b 415 648 201 593 239 648 b 586 493 536 648 586 626 l 586 0 l 694 0 l 694 484 b 424 737 696 687 608 737 b 204 640 343 737 238 727 l 201 640 l 201 1041 "},".":{"x_min":149.71875,"x_max":270.859375,"ha":479,"o":"m 270 141 l 149 141 l 149 0 l 270 0 l 270 141 "},";":{"x_min":149.71875,"x_max":285.828125,"ha":479,"o":"m 216 0 l 216 -26 b 149 -93 216 -77 198 -91 l 149 -155 l 181 -155 b 285 -26 272 -155 285 -100 l 285 141 l 164 141 l 164 0 l 216 0 m 285 729 l 164 729 l 164 587 l 285 587 l 285 729 "},"f":{"x_min":10.890625,"x_max":416.5,"ha":419,"o":"m 227 729 l 227 827 b 349 961 227 925 242 961 b 416 958 371 961 394 959 l 416 1047 b 349 1050 394 1048 371 1050 b 119 816 174 1050 119 994 l 119 729 l 10 729 l 10 640 l 119 640 l 119 0 l 227 0 l 227 640 l 416 640 l 416 729 l 227 729 "},"“":{"x_min":69.421875,"x_max":419.21875,"ha":499,"o":"m 352 894 l 352 920 b 419 987 352 972 370 986 l 419 1050 l 387 1050 b 283 920 296 1050 283 994 l 283 752 l 404 752 l 404 894 l 352 894 m 138 894 l 138 920 b 205 987 138 972 156 986 l 205 1050 l 174 1050 b 69 920 83 1050 69 994 l 69 752 l 190 752 l 190 894 l 138 894 "},"A":{"x_min":8,"x_max":924,"ha":951,"o":"m 723 220 l 804 0 l 924 0 l 542 1041 l 379 1041 l 8 0 l 129 0 l 208 220 l 723 220 m 691 318 l 239 318 l 463 944 l 691 318 "},"6":{"x_min":91.1875,"x_max":847.96875,"ha":958,"o":"m 494 540 b 732 318 711 540 732 515 b 469 95 732 130 722 95 b 206 359 227 95 206 133 b 494 540 206 527 269 540 m 91 359 b 469 -8 91 36 183 -8 b 847 318 759 -8 847 37 b 469 644 847 611 752 644 b 209 548 314 644 235 613 l 206 548 l 206 772 b 475 945 210 948 288 945 b 709 806 627 945 709 945 l 709 777 l 824 777 l 824 811 b 475 1050 824 1051 642 1050 b 91 772 236 1050 93 1019 l 91 359 "},"‘":{"x_min":69.421875,"x_max":205.53125,"ha":279,"o":"m 138 894 l 138 920 b 205 987 138 972 156 986 l 205 1050 l 174 1050 b 69 920 83 1050 69 994 l 69 752 l 190 752 l 190 894 l 138 894 "},"π":{"x_min":13.609375,"x_max":911.953125,"ha":961,"o":"m 901 670 l 911 756 l 246 756 b 13 716 121 756 55 740 l 31 648 b 225 670 68 662 115 670 b 102 0 216 469 164 150 l 208 0 b 332 670 268 126 321 475 l 653 670 l 653 213 b 680 0 653 81 665 22 l 784 0 b 760 229 773 40 760 95 l 760 670 l 901 670 "},"O":{"x_min":55.8125,"x_max":857.5,"ha":932,"o":"m 387 1050 b 55 700 133 1047 55 961 l 55 329 b 387 -8 55 83 142 -8 l 525 -8 b 857 329 770 -8 857 83 l 857 700 b 525 1050 857 961 779 1047 l 387 1050 m 525 945 b 741 700 696 945 741 902 l 741 329 b 525 95 741 122 675 97 l 387 95 b 171 329 238 97 171 122 l 171 700 b 387 945 171 902 216 945 l 525 945 "},"n":{"x_min":93.921875,"x_max":694.234375,"ha":806,"o":"m 201 729 l 93 729 l 93 0 l 201 0 l 201 425 b 415 648 201 593 239 648 b 586 493 536 648 586 626 l 586 0 l 694 0 l 694 484 b 424 737 696 687 608 737 b 204 640 343 737 238 727 l 201 640 l 201 729 "},"3":{"x_min":78.84375,"x_max":838.453125,"ha":958,"o":"m 374 481 l 495 481 b 722 306 641 481 722 483 b 441 95 722 99 688 91 b 194 267 221 99 194 105 l 194 337 l 78 337 l 78 267 b 441 -8 74 24 206 -8 b 838 294 686 -8 838 -19 b 649 533 838 447 804 520 l 649 536 b 818 779 798 547 818 645 b 451 1049 818 1049 669 1048 b 92 766 215 1049 92 1033 l 92 722 l 208 722 l 208 766 b 436 945 213 929 240 945 b 702 758 677 945 702 930 b 495 586 702 581 641 588 l 374 586 l 374 481 "},"9":{"x_min":85.75,"x_max":853.421875,"ha":958,"o":"m 475 508 b 213 719 250 508 213 521 b 475 945 213 938 240 945 b 737 719 679 945 737 941 b 475 508 737 521 710 508 m 85 226 b 475 -8 85 -3 235 -8 b 853 320 801 -8 853 58 l 853 719 b 475 1049 853 1003 763 1049 b 98 719 179 1049 98 1005 b 475 403 98 441 191 403 b 735 496 515 403 690 395 l 737 494 l 737 320 b 475 95 737 103 690 95 b 201 226 249 95 201 106 l 201 264 l 85 264 l 85 226 "},"l":{"x_min":92.5625,"x_max":200.078125,"ha":297,"o":"m 200 1041 l 92 1041 l 92 0 l 200 0 l 200 1041 "},"¤":{"x_min":182.125,"x_max":756.734375,"ha":958,"o":"m 182 690 l 261 607 b 214 472 227 577 214 526 b 254 327 213 420 224 366 l 187 256 l 262 174 l 335 245 b 462 210 389 220 420 209 b 598 256 507 212 553 227 l 671 180 l 749 256 l 672 335 b 713 483 690 366 715 413 b 677 601 705 547 692 577 l 756 678 l 676 762 l 600 687 b 461 721 547 714 504 722 b 334 687 424 719 384 711 l 255 769 l 182 690 m 461 301 b 303 468 394 301 299 352 b 461 630 299 582 393 630 b 624 472 529 630 624 582 b 461 301 624 352 529 301 "},"∂":{"x_min":68.0625,"x_max":813.953125,"ha":915,"o":"m 166 994 b 390 1065 210 1026 284 1065 b 710 609 560 1065 710 891 b 707 534 710 588 710 555 l 706 534 b 415 702 681 580 581 702 b 68 337 230 702 68 559 b 386 -2 68 186 166 -2 b 813 593 672 -2 813 288 b 400 1150 813 954 616 1150 b 126 1063 265 1150 178 1104 l 166 994 m 394 79 b 172 341 261 79 172 197 b 432 622 172 498 292 622 b 692 437 571 622 668 505 b 396 79 668 254 562 79 l 394 79 "},"4":{"x_min":40.71875,"x_max":879.171875,"ha":958,"o":"m 730 1041 l 553 1041 l 40 377 l 40 237 l 615 237 l 615 0 l 730 0 l 730 237 l 879 237 l 879 341 l 730 341 l 730 1041 m 615 341 l 136 341 l 612 965 l 615 965 l 615 341 "},"p":{"x_min":89.828125,"x_max":709.140625,"ha":796,"o":"m 400 648 b 597 363 582 648 597 581 b 400 80 597 127 566 80 b 197 363 208 80 197 191 b 400 648 197 556 197 648 m 197 729 l 89 729 l 89 -315 l 197 -315 l 197 86 l 200 86 b 430 -8 240 1 348 -8 b 709 363 639 -8 709 75 b 430 737 709 581 690 737 b 200 637 340 737 243 720 l 197 640 l 197 729 "},"‡":{"x_min":176.9375,"x_max":762.21875,"ha":958,"o":"m 526 1041 l 411 1041 l 411 713 l 176 713 l 176 616 l 411 616 l 411 159 l 176 159 l 176 62 l 411 62 l 411 -290 l 526 -290 l 526 62 l 762 62 l 762 159 l 526 159 l 526 616 l 762 616 l 762 713 l 526 713 l 526 1041 "},"à":{"x_min":66.6875,"x_max":684.65625,"ha":792,"o":"m 357 81 b 178 226 234 81 178 87 b 357 353 178 344 230 353 b 574 217 494 353 574 354 b 357 81 574 83 465 81 m 684 0 l 684 497 b 374 737 686 719 553 739 b 88 539 215 739 88 726 l 88 524 l 200 524 l 200 549 b 386 649 198 649 302 649 b 577 503 507 649 577 636 l 577 368 l 570 368 b 345 442 555 435 416 442 b 66 212 168 442 66 414 b 338 -7 66 22 178 -7 b 574 78 428 -7 533 -5 l 577 75 l 577 0 l 684 0 m 287 1032 l 232 957 l 453 818 l 488 875 l 287 1032 "},"Ü":{"x_min":98,"x_max":906.5,"ha":1024,"o":"m 790 1041 l 790 291 b 502 95 790 97 707 95 b 213 291 253 95 213 122 l 213 1041 l 98 1041 l 98 291 b 502 -8 98 -2 279 -8 b 906 291 743 -8 906 12 l 906 1041 l 790 1041 m 426 1219 l 306 1219 l 306 1116 l 426 1116 l 426 1219 m 698 1219 l 578 1219 l 578 1116 l 698 1116 l 698 1219 "},"ó":{"x_min":70.78125,"x_max":705.0625,"ha":792,"o":"m 70 363 b 387 -8 70 56 122 -8 b 705 363 653 -8 705 56 b 387 737 705 672 653 737 b 70 363 122 737 70 672 m 182 363 b 387 648 182 618 196 648 b 593 363 579 648 593 618 b 387 80 593 111 579 80 b 182 363 196 80 182 111 m 462 1031 l 259 875 l 296 818 l 515 956 l 462 1031 "},"√":{"x_min":54,"x_max":933,"ha":946,"o":"m 933 1205 l 851 1205 l 537 -20 b 516 -115 530 -51 520 -87 l 513 -115 b 486 -22 507 -84 496 -51 l 263 559 l 54 475 l 77 414 l 200 461 l 467 -220 l 564 -220 l 933 1205 "}}}
